<?xml version="1.0" encoding="utf-8"?>
<!-- Generator: Adobe Illustrator 16.0.4, SVG Export Plug-In . SVG Version: 6.00 Build 0)  -->
<!DOCTYPE svg PUBLIC "-//W3C//DTD SVG 1.0//EN" "http://www.w3.org/TR/2001/REC-SVG-20010904/DTD/svg10.dtd">
<svg version="1.0" id="Слой_1" xmlns="http://www.w3.org/2000/svg" xmlns:xlink="http://www.w3.org/1999/xlink" x="0px" y="0px"
	 width="23.756px" height="16.754px" viewBox="0 0 23.756 16.754" enable-background="new 0 0 23.756 16.754" xml:space="preserve">
<g>
	<path fill="#F3BC40" d="M23.756,8.401c0,0.048,0,0.119,0,0.214V8.71c-0.031,0-0.047,0.016-0.047,0.048c0,0.031,0,0.063,0,0.095
		c-1.083,2.475-2.69,4.411-4.825,5.807c-2.134,1.396-4.47,2.095-7.006,2.095s-4.871-0.698-7.006-2.095
		c-2.134-1.396-3.743-3.348-4.825-5.854V8.758C0.047,8.726,0.031,8.71,0,8.71V8.615C0,8.52,0,8.449,0,8.401s0-0.119,0-0.214V8.091
		c0.031,0,0.047-0.016,0.047-0.048c0-0.031,0-0.062,0-0.095C1.129,5.474,2.745,3.53,4.896,2.118C7.045,0.706,9.388,0,11.925,0
		c2.536,0,4.863,0.706,6.982,2.118c2.118,1.412,3.719,3.372,4.802,5.878v0.047v0.048c0.031,0,0.047,0.032,0.047,0.096
		C23.756,8.282,23.756,8.353,23.756,8.401z M22.271,8.424c-0.99-2.221-2.413-3.926-4.269-5.116c-1.856-1.19-3.883-1.785-6.078-1.785
		c-2.197,0-4.238,0.595-6.125,1.785S2.475,6.188,1.485,8.377c0.989,2.221,2.42,3.919,4.292,5.093
		c1.871,1.174,3.904,1.761,6.101,1.761s4.229-0.587,6.102-1.761C19.851,12.296,21.281,10.614,22.271,8.424z M16.425,8.401
		c0,1.254-0.44,2.332-1.322,3.236c-0.881,0.904-1.934,1.356-3.155,1.356s-2.266-0.452-3.131-1.356c-0.867-0.904-1.3-1.982-1.3-3.236
		c0-1.253,0.433-2.324,1.3-3.213c0.865-0.888,1.909-1.333,3.131-1.333s2.274,0.444,3.155,1.333
		C15.984,6.077,16.425,7.148,16.425,8.401z M14.894,8.401c0-0.841-0.294-1.562-0.881-2.166c-0.588-0.603-1.284-0.904-2.088-0.904
		c-0.805,0-1.501,0.301-2.088,0.904C9.249,6.838,8.955,7.552,8.955,8.377s0.294,1.547,0.882,2.165
		c0.587,0.619,1.291,0.929,2.11,0.929s1.516-0.302,2.088-0.904S14.894,9.242,14.894,8.401z"/>
</g>
</svg>
