<?xml version="1.0" encoding="utf-8"?>
<!-- Generator: Adobe Illustrator 16.0.4, SVG Export Plug-In . SVG Version: 6.00 Build 0)  -->
<!DOCTYPE svg PUBLIC "-//W3C//DTD SVG 1.0//EN" "http://www.w3.org/TR/2001/REC-SVG-20010904/DTD/svg10.dtd">
<svg version="1.0" id="Слой_1" xmlns="http://www.w3.org/2000/svg" xmlns:xlink="http://www.w3.org/1999/xlink" x="0px" y="0px"
	 width="11.993px" height="14px" viewBox="0 0 11.993 14" enable-background="new 0 0 11.993 14" xml:space="preserve">
<g>
	<path fill="#FFFFFF" d="M6.946,3.285v9.809c0,0.265-0.097,0.482-0.294,0.652C6.457,13.916,6.233,14,5.979,14
		c-0.254,0-0.471-0.085-0.646-0.255s-0.264-0.387-0.264-0.652V3.341L1.664,6.626c-0.43,0.416-0.869,0.406-1.32-0.028
		c-0.447-0.434-0.459-0.859-0.029-1.274L6.008,0l5.691,5.323c0.197,0.189,0.294,0.406,0.294,0.651c0,0.246-0.097,0.463-0.294,0.651
		c-0.43,0.416-0.859,0.416-1.291,0L6.946,3.285z"/>
</g>
</svg>
