<?xml version="1.0" encoding="UTF-8" standalone="no"?>
<!-- Generator: Adobe Illustrator 16.0.4, SVG Export Plug-In . SVG Version: 6.00 Build 0)  -->

<svg
   xmlns:dc="http://purl.org/dc/elements/1.1/"
   xmlns:cc="http://creativecommons.org/ns#"
   xmlns:rdf="http://www.w3.org/1999/02/22-rdf-syntax-ns#"
   xmlns:svg="http://www.w3.org/2000/svg"
   xmlns="http://www.w3.org/2000/svg"
   xmlns:sodipodi="http://sodipodi.sourceforge.net/DTD/sodipodi-0.dtd"
   xmlns:inkscape="http://www.inkscape.org/namespaces/inkscape"
   version="1.0"
   id="Слой_1"
   x="0px"
   y="0px"
   width="31"
   height="31"
   viewBox="0 0 45.623 46"
   inkscape:version="0.91 r13725"
   sodipodi:docname="ico-26-small.svg">
  <metadata
     id="metadata15">
    <rdf:RDF>
      <cc:Work
         rdf:about="">
        <dc:format>image/svg+xml</dc:format>
        <dc:type
           rdf:resource="http://purl.org/dc/dcmitype/StillImage" />
        <dc:title></dc:title>
      </cc:Work>
    </rdf:RDF>
  </metadata>
  <defs
     id="defs13" />
  <sodipodi:namedview
     pagecolor="#ffffff"
     bordercolor="#666666"
     borderopacity="1"
     objecttolerance="10"
     gridtolerance="10"
     guidetolerance="10"
     inkscape:pageopacity="0"
     inkscape:pageshadow="2"
     inkscape:window-width="1219"
     inkscape:window-height="679"
     id="namedview11"
     showgrid="false"
     inkscape:zoom="5.1304348"
     inkscape:cx="22.811501"
     inkscape:cy="23"
     inkscape:window-x="0"
     inkscape:window-y="0"
     inkscape:window-maximized="0"
     inkscape:current-layer="Слой_1" />
  <g
     id="g3">
    <path
       d="m 25.55,24.287 c -0.312,-0.105 -0.729,-0.175 -1.284,-0.209 -0.521,0 -1.243,0 -2.146,0 l -0.938,0 0,5.103 0.277,0 c 1.319,0 2.216,-0.035 2.736,-0.035 0.486,-0.036 1.007,-0.14 1.527,-0.385 0.485,-0.175 0.798,-0.49 1.041,-0.875 0.208,-0.385 0.312,-0.836 0.312,-1.292 0,-0.666 -0.139,-1.155 -0.382,-1.504 -0.275,-0.348 -0.623,-0.593 -1.143,-0.803 z"
       id="path5"
       inkscape:connector-curvature="0"
       style="fill:#527398" />
    <path
       d="m 23.642,20.548 c 0.347,0 0.729,-0.104 1.075,-0.28 0.417,-0.175 0.694,-0.455 0.833,-0.77 0.174,-0.35 0.243,-0.735 0.243,-1.19 0,-0.348 -0.069,-0.662 -0.243,-1.012 -0.173,-0.351 -0.416,-0.595 -0.798,-0.77 -0.312,-0.141 -0.729,-0.21 -1.181,-0.246 -0.444,0 -1.139,0 -2.041,0 l -0.348,0 0,4.298 0.659,0 c 0.869,0.002 1.459,0.002 1.801,-0.03 z"
       id="path7"
       inkscape:connector-curvature="0"
       style="fill:#527398" />
    <path
       d="M 22.812,0 C 10.213,0 0,10.298 0,23 0,35.702 10.213,46 22.812,46 35.411,46 45.624,35.702 45.624,23 45.623,10.298 35.41,0 22.812,0 Z m 8.91,29.354 c -0.382,0.732 -0.902,1.362 -1.527,1.887 -0.763,0.592 -1.596,1.012 -2.527,1.292 -0.902,0.244 -2.048,0.385 -3.436,0.385 l -8.075,0 0,-20.374 7.109,0 c 1.486,0 2.597,0.07 3.395,0.175 0.764,0.104 1.452,0.35 2.111,0.734 0.729,0.383 1.284,0.907 1.632,1.572 0.347,0.63 0.555,1.397 0.555,2.272 0,0.979 -0.277,1.852 -0.764,2.621 -0.485,0.767 -1.18,1.362 -2.013,1.712 l 0,0.105 c 1.215,0.28 2.222,0.805 2.985,1.642 0.729,0.805 1.104,1.921 1.104,3.286 0,1.012 -0.167,1.921 -0.549,2.691 z"
       id="path9"
       inkscape:connector-curvature="0"
       style="fill:#527398" />
  </g>
</svg>
