<?xml version="1.0" encoding="utf-8"?>
<!-- Generator: Adobe Illustrator 16.0.4, SVG Export Plug-In . SVG Version: 6.00 Build 0)  -->
<!DOCTYPE svg PUBLIC "-//W3C//DTD SVG 1.0//EN" "http://www.w3.org/TR/2001/REC-SVG-20010904/DTD/svg10.dtd">
<svg version="1.0" id="Слой_1" xmlns="http://www.w3.org/2000/svg" xmlns:xlink="http://www.w3.org/1999/xlink" x="0px" y="0px"
	 width="12px" height="9.429px" viewBox="0 0 12 9.429" enable-background="new 0 0 12 9.429" xml:space="preserve">
<path fill="#CCCCCC" d="M11.331,3.622C9.866,4.613,8.755,5.384,7.996,5.933C7.741,6.12,7.535,6.267,7.376,6.371
	C7.218,6.477,7.007,6.583,6.743,6.692C6.48,6.802,6.234,6.856,6.007,6.856H6H5.993c-0.228,0-0.473-0.055-0.736-0.164
	S4.782,6.477,4.624,6.371C4.466,6.267,4.259,6.12,4.005,5.933C3.402,5.491,2.293,4.721,0.677,3.622C0.422,3.453,0.196,3.259,0,3.04
	v5.316c0,0.295,0.105,0.547,0.315,0.757c0.209,0.21,0.462,0.315,0.756,0.315h9.857c0.295,0,0.547-0.105,0.757-0.315
	S12,8.651,12,8.356V3.04C11.809,3.254,11.585,3.448,11.331,3.622L11.331,3.622z M11.683,0.314C11.47,0.104,11.219,0,10.929,0H1.071
	C0.728,0,0.464,0.116,0.278,0.348C0.093,0.58,0,0.87,0,1.219C0,1.5,0.123,1.805,0.368,2.133c0.246,0.328,0.507,0.586,0.784,0.773
	C1.304,3.013,1.762,3.331,2.524,3.86c0.764,0.528,1.349,0.937,1.755,1.222c0.045,0.031,0.14,0.1,0.284,0.204
	c0.146,0.105,0.266,0.19,0.362,0.255c0.096,0.064,0.212,0.138,0.348,0.218c0.137,0.08,0.265,0.141,0.386,0.181
	C5.779,5.979,5.891,6,5.993,6H6h0.007c0.103,0,0.215-0.021,0.335-0.061s0.249-0.101,0.385-0.181c0.137-0.08,0.253-0.153,0.349-0.218
	s0.217-0.149,0.361-0.255c0.146-0.104,0.24-0.173,0.285-0.204c0.41-0.285,1.455-1.011,3.134-2.176
	c0.325-0.228,0.598-0.503,0.816-0.824S12,1.424,12,1.071C12,0.776,11.895,0.524,11.683,0.314z"/>
</svg>
