<?xml version="1.0" encoding="utf-8"?>
<!-- Generator: Adobe Illustrator 16.0.4, SVG Export Plug-In . SVG Version: 6.00 Build 0)  -->
<!DOCTYPE svg PUBLIC "-//W3C//DTD SVG 1.0//EN" "http://www.w3.org/TR/2001/REC-SVG-20010904/DTD/svg10.dtd">
<svg version="1.0" id="Слой_1" xmlns="http://www.w3.org/2000/svg" xmlns:xlink="http://www.w3.org/1999/xlink" x="0px" y="0px"
	 width="11.934px" height="11.933px" viewBox="0 0 11.934 11.933" enable-background="new 0 0 11.934 11.933" xml:space="preserve">
<g>
	<path fill="#CCCCCC" d="M11.652,8.92L8.699,5.967l2.953-2.953c0.188-0.188,0.281-0.415,0.281-0.684
		c0-0.268-0.094-0.495-0.281-0.683l-1.366-1.366C10.099,0.094,9.871,0,9.604,0C9.335,0,9.107,0.094,8.92,0.281L5.967,3.234
		L3.014,0.281C2.826,0.094,2.599,0,2.331,0C2.062,0,1.835,0.094,1.647,0.281L0.281,1.647C0.094,1.835,0,2.062,0,2.33
		c0,0.269,0.094,0.496,0.281,0.684l2.953,2.953L0.281,8.92C0.094,9.107,0,9.335,0,9.603s0.094,0.496,0.281,0.684l1.366,1.365
		c0.188,0.188,0.415,0.281,0.684,0.281c0.268,0,0.495-0.094,0.683-0.281l2.953-2.953l2.953,2.953
		c0.188,0.188,0.415,0.281,0.684,0.281c0.268,0,0.495-0.094,0.683-0.281l1.366-1.365c0.188-0.188,0.281-0.416,0.281-0.684
		S11.84,9.107,11.652,8.92L11.652,8.92z"/>
</g>
</svg>
