<?xml version="1.0" encoding="utf-8"?>
<!-- Generator: Adobe Illustrator 16.0.4, SVG Export Plug-In . SVG Version: 6.00 Build 0)  -->
<!DOCTYPE svg PUBLIC "-//W3C//DTD SVG 1.0//EN" "http://www.w3.org/TR/2001/REC-SVG-20010904/DTD/svg10.dtd">
<svg version="1.0" id="Слой_1" xmlns="http://www.w3.org/2000/svg" xmlns:xlink="http://www.w3.org/1999/xlink" x="0px" y="0px"
	 width="3.898px" height="6.683px" viewBox="0 0 3.898 6.683" enable-background="new 0 0 3.898 6.683" xml:space="preserve">
<g>
	<path fill="#313131" d="M0.402,0.067L0.067,0.402C0.023,0.446,0,0.498,0,0.556s0.023,0.109,0.067,0.154l2.632,2.632L0.067,5.973
		C0.023,6.018,0,6.069,0,6.127c0,0.058,0.023,0.109,0.067,0.154l0.335,0.335c0.045,0.044,0.096,0.067,0.154,0.067
		c0.058,0,0.109-0.022,0.154-0.067l3.12-3.121C3.875,3.451,3.898,3.4,3.898,3.342s-0.023-0.11-0.067-0.154l-3.12-3.121
		C0.666,0.022,0.614,0,0.557,0C0.498,0,0.447,0.022,0.402,0.067L0.402,0.067z"/>
</g>
</svg>
