<?xml version="1.0" encoding="utf-8"?>
<!-- Generator: Adobe Illustrator 16.0.4, SVG Export Plug-In . SVG Version: 6.00 Build 0)  -->
<!DOCTYPE svg PUBLIC "-//W3C//DTD SVG 1.0//EN" "http://www.w3.org/TR/2001/REC-SVG-20010904/DTD/svg10.dtd">
<svg version="1.0" id="Слой_1" xmlns="http://www.w3.org/2000/svg" xmlns:xlink="http://www.w3.org/1999/xlink" x="0px" y="0px"
	 width="45.623px" height="46px" viewBox="0 0 45.623 46" enable-background="new 0 0 45.623 46" xml:space="preserve">
<g>
	<path fill="#F27400" d="M23.281,19.105c0.744,0,1.454-0.307,1.961-0.853c1.082-1.125,1.082-3,0-4.125
		c-0.507-0.545-1.217-0.853-1.961-0.853s-1.42,0.307-1.961,0.853c-1.082,1.125-1.082,2.999,0,4.125
		C21.861,18.798,22.537,19.105,23.281,19.105z"/>
	<path fill="#F27400" d="M22.812,0C10.213,0,0,10.298,0,23s10.213,23,22.812,23s22.812-10.297,22.812-23S35.41,0,22.812,0z
		 M18.514,11.196c1.285-1.33,2.976-2.046,4.768-2.046s3.482,0.717,4.768,2.046c2.637,2.761,2.637,7.228,0,9.988
		c-1.285,1.33-2.976,2.045-4.768,2.045s-3.482-0.716-4.768-2.045C15.91,18.423,15.91,13.957,18.514,11.196z M29.773,32.673
		c0.777,0.818,0.777,2.113,0,2.932c-0.406,0.409-0.913,0.613-1.421,0.613c-0.507,0-1.014-0.204-1.386-0.613l-3.686-3.853
		l-3.651,3.853c-0.777,0.817-2.029,0.817-2.807,0c-0.777-0.819-0.777-2.114,0-2.932l3.82-4.022
		c-1.284-0.239-2.535-0.716-3.753-1.364c-0.98-0.545-1.353-1.807-0.845-2.795c0.507-1.023,1.725-1.432,2.671-0.887
		c2.874,1.568,6.289,1.568,9.129-0.034c0.946-0.511,2.164-0.136,2.671,0.886c0.507,0.989,0.136,2.25-0.812,2.795
		c-1.217,0.648-2.468,1.125-3.786,1.398L29.773,32.673z"/>
</g>
</svg>
