<?xml version="1.0" encoding="UTF-8" standalone="no"?>
<!-- Generator: Adobe Illustrator 16.0.4, SVG Export Plug-In . SVG Version: 6.00 Build 0)  -->

<svg
   xmlns:dc="http://purl.org/dc/elements/1.1/"
   xmlns:cc="http://creativecommons.org/ns#"
   xmlns:rdf="http://www.w3.org/1999/02/22-rdf-syntax-ns#"
   xmlns:svg="http://www.w3.org/2000/svg"
   xmlns="http://www.w3.org/2000/svg"
   xmlns:sodipodi="http://sodipodi.sourceforge.net/DTD/sodipodi-0.dtd"
   xmlns:inkscape="http://www.inkscape.org/namespaces/inkscape"
   version="1.0"
   id="Слой_1"
   x="0px"
   y="0px"
   width="20.29px"
   height="20.29px"
   viewBox="0 0 20.29 20.29"
   enable-background="new 0 0 20.29 20.29"
   xml:space="preserve"
   inkscape:version="0.91 r13725"
   sodipodi:docname="ico-33-white.svg"><metadata
     id="metadata11"><rdf:RDF><cc:Work
         rdf:about=""><dc:format>image/svg+xml</dc:format><dc:type
           rdf:resource="http://purl.org/dc/dcmitype/StillImage" /><dc:title></dc:title></cc:Work></rdf:RDF></metadata><defs
     id="defs9" /><sodipodi:namedview
     pagecolor="#ffffff"
     bordercolor="#666666"
     borderopacity="1"
     objecttolerance="10"
     gridtolerance="10"
     guidetolerance="10"
     inkscape:pageopacity="0"
     inkscape:pageshadow="2"
     inkscape:window-width="1284"
     inkscape:window-height="712"
     id="namedview7"
     showgrid="false"
     inkscape:zoom="11.631345"
     inkscape:cx="10.145"
     inkscape:cy="10.145"
     inkscape:window-x="0"
     inkscape:window-y="0"
     inkscape:window-maximized="0"
     inkscape:current-layer="Слой_1" /><g
     id="g3"><path
       d="m 3.429,18.576 0,-1.715 -1.715,0 0,-1.433 1.219,-1.219 3.147,3.147 -1.219,1.219 -1.432,0 z M 11.772,6.375 4.513,13.634 c -0.062,0.062 -0.139,0.094 -0.229,0.094 -0.196,0 -0.294,-0.098 -0.294,-0.294 0,-0.09 0.031,-0.166 0.094,-0.229 l 7.259,-7.259 c 0.062,-0.062 0.139,-0.094 0.228,-0.094 0.196,0 0.295,0.099 0.295,0.295 0,0.09 -0.031,0.165 -0.094,0.228 l 0,0 z M 0,14.719 0,20.29 5.571,20.29 16.714,9.147 11.143,3.576 0,14.719 Z M 19.795,3.643 16.648,0.509 C 16.308,0.17 15.901,0 15.429,0 14.947,0 14.545,0.17 14.223,0.509 L 12,2.719 17.571,8.29 19.795,6.067 c 0.33,-0.33 0.495,-0.732 0.495,-1.206 0,-0.464 -0.165,-0.87 -0.495,-1.218 l 0,0 z"
       id="path5"
       inkscape:connector-curvature="0"
       style="fill:#ffffff" /></g></svg>