<?xml version="1.0" encoding="utf-8"?>
<!-- Generator: Adobe Illustrator 16.0.4, SVG Export Plug-In . SVG Version: 6.00 Build 0)  -->
<!DOCTYPE svg PUBLIC "-//W3C//DTD SVG 1.0//EN" "http://www.w3.org/TR/2001/REC-SVG-20010904/DTD/svg10.dtd">
<svg version="1.0" id="Слой_1" xmlns="http://www.w3.org/2000/svg" xmlns:xlink="http://www.w3.org/1999/xlink" x="0px" y="0px"
	 width="8px" height="12px" viewBox="0 0 8 12" enable-background="new 0 0 8 12" xml:space="preserve">
<path fill="#CCCCCC" d="M4,6C3.448,6,2.977,5.805,2.586,5.414S2,4.552,2,4c0-0.553,0.195-1.023,0.586-1.414S3.448,2,4,2
	s1.023,0.195,1.414,0.586S6,3.447,6,4c0,0.552-0.195,1.023-0.586,1.414S4.552,6,4,6z M6.828,1.172C6.047,0.391,5.104,0,4,0
	C2.896,0,1.953,0.391,1.172,1.172S0,2.896,0,4c0,0.567,0.086,1.034,0.258,1.398l2.852,6.047c0.078,0.172,0.199,0.307,0.363,0.406
	C3.637,11.95,3.812,12,4,12s0.363-0.05,0.527-0.148c0.164-0.1,0.288-0.234,0.371-0.406l2.844-6.047C7.914,5.034,8,4.567,8,4
	C8,2.896,7.609,1.953,6.828,1.172z"/>
</svg>
