<?xml version="1.0" encoding="utf-8"?>
<!-- Generator: Adobe Illustrator 16.0.4, SVG Export Plug-In . SVG Version: 6.00 Build 0)  -->
<!DOCTYPE svg PUBLIC "-//W3C//DTD SVG 1.0//EN" "http://www.w3.org/TR/2001/REC-SVG-20010904/DTD/svg10.dtd">
<svg version="1.0" id="Слой_1" xmlns="http://www.w3.org/2000/svg" xmlns:xlink="http://www.w3.org/1999/xlink" x="0px" y="0px"
	 width="17px" height="17px" viewBox="0 0 17 17" enable-background="new 0 0 17 17" xml:space="preserve">
<g>
	<path fill="#FFFFFF" d="M17,8.5c0,2.347-0.83,4.35-2.49,6.01S10.847,17,8.5,17s-4.35-0.83-6.01-2.49S0,10.847,0,8.5
		c0-2.346,0.83-4.35,2.49-6.01S6.153,0,8.5,0s4.35,0.83,6.01,2.49S17,6.154,17,8.5z M15.938,8.5c0-2.059-0.726-3.812-2.175-5.263
		c-1.45-1.449-3.204-2.175-5.263-2.175S4.687,1.788,3.237,3.237C1.787,4.688,1.062,6.441,1.062,8.5s0.725,3.818,2.175,5.279
		c1.449,1.461,3.204,2.191,5.263,2.191s3.812-0.73,5.263-2.191C15.212,12.318,15.938,10.559,15.938,8.5z M12.601,8.118
		c0.1,0.1,0.149,0.228,0.149,0.382c0,0.155-0.05,0.282-0.149,0.382s-0.227,0.149-0.382,0.149H9.031v3.188
		c0,0.155-0.05,0.282-0.149,0.382S8.655,12.75,8.5,12.75s-0.282-0.05-0.382-0.149s-0.149-0.227-0.149-0.382V9.031H4.781
		c-0.155,0-0.282-0.05-0.382-0.149S4.25,8.655,4.25,8.5c0-0.154,0.05-0.282,0.149-0.382s0.227-0.149,0.382-0.149h3.188V4.781
		c0-0.154,0.05-0.282,0.149-0.382S8.345,4.25,8.5,4.25S8.782,4.3,8.882,4.399s0.149,0.228,0.149,0.382v3.188h3.188
		C12.374,7.969,12.501,8.019,12.601,8.118z"/>
</g>
</svg>
