<?xml version="1.0" encoding="utf-8"?>
<!-- Generator: Adobe Illustrator 16.0.4, SVG Export Plug-In . SVG Version: 6.00 Build 0)  -->
<!DOCTYPE svg PUBLIC "-//W3C//DTD SVG 1.0//EN" "http://www.w3.org/TR/2001/REC-SVG-20010904/DTD/svg10.dtd">
<svg version="1.0" id="Слой_1" xmlns="http://www.w3.org/2000/svg" xmlns:xlink="http://www.w3.org/1999/xlink" x="0px" y="0px"
	 width="45.623px" height="46px" viewBox="0 0 45.623 46" enable-background="new 0 0 45.623 46" xml:space="preserve">
<g>
	<path fill="#4561A2" d="M22.812,0C10.213,0,0,10.298,0,23c0,12.702,10.213,23,22.812,23s22.812-10.298,22.812-23
		C45.623,10.298,35.41,0,22.812,0z M28.213,18.789l-0.287,3.589h-3.623v12.438h-4.61V22.378h-2.446v-3.589h2.446v-1.124v-1.088
		v-0.193c0-1.06,0.031-2.693,0.795-3.721c0.796-1.056,1.905-1.794,3.815-1.794c0,0,3.082,0,4.387,0.449l-0.604,3.653
		c-1.019-0.286-1.968-0.286-1.968-0.286c-0.955,0-1.814,0.351-1.814,1.313v0.385v1.281v1.124H28.213z"/>
</g>
</svg>
