<?xml version="1.0" encoding="utf-8"?>
<!-- Generator: Adobe Illustrator 16.0.4, SVG Export Plug-In . SVG Version: 6.00 Build 0)  -->
<!DOCTYPE svg PUBLIC "-//W3C//DTD SVG 1.0//EN" "http://www.w3.org/TR/2001/REC-SVG-20010904/DTD/svg10.dtd">
<svg version="1.0" id="Слой_1" xmlns="http://www.w3.org/2000/svg" xmlns:xlink="http://www.w3.org/1999/xlink" x="0px" y="0px"
	 width="22.014px" height="15.004px" viewBox="0 0 22.014 15.004" enable-background="new 0 0 22.014 15.004" xml:space="preserve">
<g>
	<path fill="#F3BC40" d="M22.014,1.534v0.043c0,0.057,0,0.1,0,0.128v10.911c0,0.626-0.15,1.18-0.451,1.663s-0.724,0.725-1.269,0.725
		H2.414c-0.573,0-1.117-0.256-1.633-0.768s-0.774-1.051-0.774-1.62V1.705c0-0.057,0-0.114,0-0.171
		C-0.021,1.336,0.035,1.15,0.179,0.98c0.028-0.028,0.058-0.057,0.087-0.086C0.724,0.298,1.439,0,2.414,0h17.88
		c0.917,0,1.462,0.384,1.634,1.15C21.984,1.265,22.014,1.393,22.014,1.534z M20.639,12.616V2.855l-9.198,7.289
		c-0.115,0.085-0.258,0.128-0.43,0.128s-0.316-0.043-0.43-0.128L1.383,2.855v9.761c0,0.199,0.121,0.42,0.365,0.661
		c0.243,0.241,0.466,0.362,0.666,0.362h17.88C20.523,13.64,20.639,13.299,20.639,12.616z M1.77,1.406l9.241,7.289l9.283-7.332H2.414
		C2.07,1.363,1.855,1.378,1.77,1.406z"/>
</g>
</svg>
