<?xml version="1.0" encoding="utf-8"?>
<!-- Generator: Adobe Illustrator 16.0.4, SVG Export Plug-In . SVG Version: 6.00 Build 0)  -->
<!DOCTYPE svg PUBLIC "-//W3C//DTD SVG 1.0//EN" "http://www.w3.org/TR/2001/REC-SVG-20010904/DTD/svg10.dtd">
<svg version="1.0" id="Слой_1" xmlns="http://www.w3.org/2000/svg" xmlns:xlink="http://www.w3.org/1999/xlink" x="0px" y="0px"
	 width="11px" height="11px" viewBox="0 0 11 11" enable-background="new 0 0 11 11" xml:space="preserve">
<path fill="#CCCCCC" d="M10.977,8.523c-0.031-0.094-0.229-0.232-0.594-0.414c-0.099-0.058-0.239-0.136-0.422-0.234
	c-0.182-0.099-0.348-0.19-0.496-0.273S9.178,7.438,9.047,7.359C9.026,7.344,8.961,7.298,8.852,7.223S8.65,7.091,8.574,7.055
	C8.499,7.019,8.425,7,8.352,7C8.248,7,8.117,7.074,7.961,7.223s-0.299,0.31-0.43,0.484c-0.13,0.174-0.268,0.336-0.414,0.484
	C6.972,8.34,6.852,8.414,6.758,8.414c-0.047,0-0.105-0.013-0.176-0.039s-0.123-0.049-0.16-0.066C6.386,8.29,6.323,8.254,6.234,8.199
	c-0.088-0.055-0.138-0.085-0.148-0.09C5.373,7.714,4.761,7.26,4.25,6.75C3.74,6.239,3.287,5.627,2.891,4.914
	c-0.005-0.011-0.035-0.061-0.09-0.148C2.746,4.677,2.71,4.614,2.691,4.578c-0.018-0.037-0.04-0.09-0.066-0.16
	C2.6,4.348,2.586,4.289,2.586,4.242c0-0.094,0.074-0.214,0.223-0.359c0.148-0.146,0.311-0.284,0.484-0.414
	c0.175-0.13,0.336-0.273,0.484-0.43S4,2.752,4,2.648c0-0.073-0.018-0.147-0.055-0.223C3.909,2.35,3.854,2.258,3.777,2.148
	C3.702,2.039,3.656,1.974,3.641,1.953c-0.078-0.131-0.158-0.27-0.242-0.418C3.315,1.387,3.225,1.222,3.125,1.039
	C3.026,0.856,2.948,0.716,2.891,0.617C2.709,0.252,2.57,0.055,2.477,0.023C2.44,0.008,2.386,0,2.312,0
	C2.172,0,1.988,0.026,1.762,0.078S1.357,0.185,1.227,0.242C0.967,0.352,0.69,0.669,0.398,1.195C0.133,1.685,0,2.169,0,2.648
	c0,0.141,0.01,0.277,0.027,0.41c0.019,0.133,0.051,0.282,0.098,0.449c0.047,0.166,0.085,0.29,0.113,0.371
	C0.268,3.96,0.32,4.104,0.398,4.312c0.078,0.208,0.125,0.336,0.141,0.383c0.183,0.511,0.398,0.966,0.648,1.367
	C1.6,6.729,2.16,7.418,2.871,8.129s1.4,1.272,2.066,1.684c0.401,0.25,0.857,0.466,1.367,0.648c0.047,0.016,0.175,0.062,0.383,0.141
	c0.209,0.078,0.354,0.131,0.434,0.16c0.081,0.028,0.205,0.066,0.371,0.113c0.167,0.047,0.316,0.079,0.449,0.098
	C8.074,10.99,8.211,11,8.352,11c0.479,0,0.964-0.133,1.453-0.398c0.526-0.292,0.844-0.567,0.953-0.828
	c0.058-0.13,0.112-0.309,0.164-0.535C10.975,9.012,11,8.828,11,8.688C11,8.614,10.992,8.56,10.977,8.523L10.977,8.523z"/>
</svg>
