<?xml version="1.0" encoding="utf-8"?>
<!-- Generator: Adobe Illustrator 16.0.4, SVG Export Plug-In . SVG Version: 6.00 Build 0)  -->
<!DOCTYPE svg PUBLIC "-//W3C//DTD SVG 1.0//EN" "http://www.w3.org/TR/2001/REC-SVG-20010904/DTD/svg10.dtd">
<svg version="1.0" id="Слой_1" xmlns="http://www.w3.org/2000/svg" xmlns:xlink="http://www.w3.org/1999/xlink" x="0px" y="0px"
	 width="11.836px" height="11.836px" viewBox="0 0 11.836 11.836" enable-background="new 0 0 11.836 11.836" xml:space="preserve">
<g>
	<path fill="#CCCCCC" d="M2,10.836v-1H1V9l0.711-0.711l1.836,1.836l-0.711,0.711H2z M6.867,3.719L2.633,7.953
		C2.597,7.99,2.552,8.008,2.5,8.008c-0.114,0-0.172-0.057-0.172-0.172c0-0.052,0.019-0.096,0.055-0.133l4.234-4.234
		C6.653,3.433,6.698,3.415,6.75,3.415c0.114,0,0.172,0.057,0.172,0.171C6.922,3.638,6.903,3.683,6.867,3.719L6.867,3.719z M0,8.586
		v3.25h3.25l6.5-6.5L6.5,2.086L0,8.586z M11.547,2.125L9.711,0.297C9.513,0.099,9.276,0,9,0C8.719,0,8.484,0.099,8.297,0.297
		L7,1.586l3.25,3.25l1.297-1.297c0.192-0.193,0.289-0.427,0.289-0.703C11.836,2.565,11.739,2.329,11.547,2.125L11.547,2.125z"/>
</g>
</svg>
