<?xml version="1.0" encoding="utf-8"?>
<!-- Generator: Adobe Illustrator 16.0.4, SVG Export Plug-In . SVG Version: 6.00 Build 0)  -->
<!DOCTYPE svg PUBLIC "-//W3C//DTD SVG 1.0//EN" "http://www.w3.org/TR/2001/REC-SVG-20010904/DTD/svg10.dtd">
<svg version="1.0" id="Слой_1" xmlns="http://www.w3.org/2000/svg" xmlns:xlink="http://www.w3.org/1999/xlink" x="0px" y="0px"
	 width="7px" height="11px" viewBox="0 0 7 11" enable-background="new 0 0 7 11" xml:space="preserve">
<g>
	<path fill="#FFFFFF" d="M4,2v8c0,0.177-0.002,0.714-0.117,0.829C3.77,10.943,3.639,11,3.489,11c-0.147,0-0.274-0.057-0.377-0.171
		S3,10.178,3,10V2L0.972,4.455C0.721,4.734,0.464,4.728,0.201,4.436c-0.262-0.292-0.268-0.577-0.018-0.856L3.506,0l3.323,3.579
		C6.943,3.706,7,3.852,7,4.017c0,0.166-0.057,0.311-0.171,0.438c-0.251,0.279-0.502,0.279-0.754,0L4,2z"/>
</g>
</svg>
