<?xml version="1.0" encoding="utf-8"?>
<!-- Generator: Adobe Illustrator 16.0.4, SVG Export Plug-In . SVG Version: 6.00 Build 0)  -->
<!DOCTYPE svg PUBLIC "-//W3C//DTD SVG 1.0//EN" "http://www.w3.org/TR/2001/REC-SVG-20010904/DTD/svg10.dtd">
<svg version="1.0" id="Слой_1" xmlns="http://www.w3.org/2000/svg" xmlns:xlink="http://www.w3.org/1999/xlink" x="0px" y="0px"
	 width="19px" height="17.006px" viewBox="0 0 19 17.006" enable-background="new 0 0 19 17.006" xml:space="preserve">
<g>
	<g>
		<path fill="#6ECBED" d="M9.5,17.006c-0.184,0-0.34-0.067-0.467-0.2l-6.615-6.665c-0.071-0.06-0.168-0.155-0.292-0.288
			c-0.124-0.133-0.32-0.375-0.589-0.726c-0.269-0.35-0.509-0.71-0.721-1.08C0.604,7.68,0.415,7.234,0.249,6.709
			C0.083,6.186,0,5.676,0,5.182c0-1.624,0.449-2.894,1.347-3.808C2.244,0.458,3.484,0,5.068,0c0.438,0,0.885,0.08,1.341,0.238
			s0.88,0.373,1.272,0.642s0.73,0.522,1.013,0.758S9.246,2.126,9.5,2.392c0.254-0.266,0.523-0.517,0.806-0.753
			s0.62-0.489,1.013-0.758s0.816-0.483,1.272-0.642S13.494,0,13.932,0c1.584,0,2.824,0.458,3.722,1.374
			C18.551,2.288,19,3.558,19,5.182c0,1.631-0.81,3.292-2.428,4.982l-6.605,6.643C9.84,16.939,9.684,17.006,9.5,17.006z"/>
	</g>
</g>
</svg>
