<?xml version="1.0" encoding="utf-8"?>
<!-- Generator: Adobe Illustrator 16.0.4, SVG Export Plug-In . SVG Version: 6.00 Build 0)  -->
<!DOCTYPE svg PUBLIC "-//W3C//DTD SVG 1.0//EN" "http://www.w3.org/TR/2001/REC-SVG-20010904/DTD/svg10.dtd">
<svg version="1.0" id="Слой_1" xmlns="http://www.w3.org/2000/svg" xmlns:xlink="http://www.w3.org/1999/xlink" x="0px" y="0px"
	 width="13.998px" height="13.998px" viewBox="0 0 13.998 13.998" enable-background="new 0 0 13.998 13.998" xml:space="preserve">
<g>
	<path fill="#6ECBED" d="M13.06,3.485c0.625,1.072,0.938,2.244,0.938,3.514s-0.313,2.44-0.938,3.513
		c-0.626,1.072-1.476,1.922-2.548,2.548c-1.072,0.625-2.243,0.938-3.513,0.938s-2.441-0.313-3.514-0.938
		c-1.072-0.626-1.921-1.476-2.547-2.548S0,8.269,0,6.999s0.312-2.441,0.938-3.514s1.475-1.921,2.547-2.547S5.729,0,6.999,0
		s2.44,0.312,3.513,0.938S12.434,2.413,13.06,3.485z M11.082,7.582V6.415c0-0.158-0.059-0.294-0.174-0.41
		c-0.115-0.115-0.252-0.173-0.41-0.173H8.165V3.499c0-0.157-0.058-0.294-0.173-0.41C7.877,2.974,7.74,2.916,7.582,2.916H6.415
		c-0.157,0-0.294,0.058-0.409,0.173C5.89,3.205,5.832,3.342,5.832,3.499v2.333H3.499c-0.158,0-0.295,0.058-0.41,0.173
		c-0.115,0.116-0.173,0.252-0.173,0.41v1.167c0,0.157,0.058,0.295,0.173,0.41s0.252,0.173,0.41,0.173h2.333v2.333
		c0,0.158,0.058,0.295,0.174,0.41c0.115,0.116,0.252,0.174,0.409,0.174h1.167c0.158,0,0.295-0.058,0.41-0.174
		c0.115-0.115,0.173-0.252,0.173-0.41V8.165h2.333c0.158,0,0.295-0.058,0.41-0.173S11.082,7.739,11.082,7.582z"/>
</g>
</svg>
