<?xml version="1.0" encoding="utf-8"?>
<!-- Generator: Adobe Illustrator 16.0.4, SVG Export Plug-In . SVG Version: 6.00 Build 0)  -->
<!DOCTYPE svg PUBLIC "-//W3C//DTD SVG 1.0//EN" "http://www.w3.org/TR/2001/REC-SVG-20010904/DTD/svg10.dtd">
<svg version="1.0" id="Слой_1" xmlns="http://www.w3.org/2000/svg" xmlns:xlink="http://www.w3.org/1999/xlink" x="0px" y="0px"
	 width="19px" height="17.006px" viewBox="0 0 19 17.006" enable-background="new 0 0 19 17.006" xml:space="preserve">
<g>
	<g>
		<path fill="#6ECBED" d="M13.932,1c1.315,0,2.3,0.351,3.008,1.074C17.653,2.801,18,3.817,18,5.182c0,1.356-0.724,2.8-2.137,4.277
			L9.5,15.858L3.128,9.437L3.095,9.404L3.06,9.374c-0.05-0.042-0.116-0.11-0.201-0.201C2.799,9.11,2.652,8.941,2.33,8.52
			C2.092,8.208,1.874,7.882,1.684,7.55C1.508,7.244,1.346,6.86,1.202,6.407C1.068,5.984,1,5.571,1,5.182
			c0-1.364,0.347-2.38,1.061-3.108C2.769,1.351,3.753,1,5.068,1C5.392,1,5.732,1.062,6.08,1.183c0.37,0.129,0.719,0.304,1.035,0.522
			c0.369,0.253,0.684,0.489,0.938,0.701C8.31,2.621,8.554,2.849,8.777,3.083L9.5,3.839l0.723-0.756
			c0.224-0.233,0.468-0.461,0.725-0.677c0.254-0.212,0.568-0.447,0.938-0.701c0.316-0.218,0.665-0.393,1.035-0.522
			C13.268,1.062,13.608,1,13.932,1 M13.932,0c-0.438,0-0.885,0.08-1.341,0.238s-0.88,0.373-1.272,0.642s-0.73,0.522-1.013,0.758
			S9.754,2.126,9.5,2.392C9.246,2.126,8.977,1.875,8.694,1.639S8.074,1.15,7.682,0.88S6.865,0.397,6.409,0.238S5.506,0,5.068,0
			C3.484,0,2.244,0.458,1.347,1.374C0.449,2.288,0,3.558,0,5.182c0,0.495,0.083,1.004,0.249,1.528
			C0.415,7.234,0.604,7.68,0.816,8.049c0.212,0.369,0.452,0.729,0.721,1.08c0.269,0.351,0.465,0.592,0.589,0.726
			c0.124,0.133,0.221,0.228,0.292,0.288l6.615,6.665c0.127,0.133,0.283,0.2,0.467,0.2s0.34-0.067,0.467-0.2l6.605-6.643
			C18.19,8.473,19,6.813,19,5.182c0-1.624-0.449-2.894-1.347-3.808C16.756,0.458,15.516,0,13.932,0L13.932,0z"/>
	</g>
</g>
</svg>
