<?xml version="1.0" encoding="utf-8"?>
<!-- Generator: Adobe Illustrator 16.0.4, SVG Export Plug-In . SVG Version: 6.00 Build 0)  -->
<!DOCTYPE svg PUBLIC "-//W3C//DTD SVG 1.0//EN" "http://www.w3.org/TR/2001/REC-SVG-20010904/DTD/svg10.dtd">
<svg version="1.0" id="Слой_1" xmlns="http://www.w3.org/2000/svg" xmlns:xlink="http://www.w3.org/1999/xlink" x="0px" y="0px"
	 width="22px" height="21.999px" viewBox="0 0 22 21.999" enable-background="new 0 0 22 21.999" xml:space="preserve">
<g>
	<path fill="#F9DE80" d="M20.625,11H1.375c-0.387,0-0.713-0.132-0.978-0.397C0.132,10.338,0,10.016,0,9.637S0.132,8.931,0.397,8.66
		c0.265-0.272,0.591-0.408,0.978-0.408h1.203c0.286,0.429,0.655,0.766,1.106,1.01c0.451,0.243,0.941,0.365,1.472,0.365
		c0.529,0,1.021-0.122,1.472-0.365c0.451-0.244,0.819-0.581,1.106-1.01h6.531c0.286,0.429,0.655,0.766,1.106,1.01
		c0.451,0.243,0.941,0.365,1.472,0.365c0.529,0,1.021-0.122,1.472-0.365c0.451-0.244,0.819-0.581,1.106-1.01h1.203
		c0.387,0,0.712,0.136,0.978,0.408C21.867,8.931,22,9.257,22,9.637s-0.133,0.702-0.397,0.967C21.337,10.868,21.012,11,20.625,11z
		 M19.25,20.624c-0.115,0.573-0.326,0.945-0.634,1.117c-0.309,0.171-0.777,0.258-1.407,0.258H4.877
		c-0.645,0-1.132-0.086-1.461-0.258c-0.33-0.172-0.552-0.544-0.666-1.117l-1.375-8.248h19.25L19.25,20.624z M6.23,7.693
		C6.072,7.965,5.844,8.144,5.543,8.23S4.955,8.28,4.684,8.123C4.411,7.965,4.235,7.732,4.157,7.424
		c-0.079-0.308-0.04-0.598,0.118-0.87L7.52,0.583c0.157-0.272,0.387-0.451,0.688-0.537c0.301-0.086,0.587-0.05,0.859,0.107
		c0.271,0.158,0.447,0.391,0.526,0.698C9.671,1.16,9.632,1.45,9.475,1.721L6.23,7.693z M17.843,7.424
		c-0.079,0.308-0.255,0.541-0.526,0.698c-0.272,0.158-0.559,0.193-0.859,0.107s-0.53-0.265-0.688-0.537l-3.244-5.972
		c-0.158-0.271-0.197-0.562-0.118-0.87c0.078-0.308,0.254-0.541,0.526-0.698c0.271-0.157,0.559-0.193,0.859-0.107
		c0.301,0.086,0.529,0.265,0.688,0.537l3.244,5.972C17.882,6.827,17.921,7.117,17.843,7.424z"/>
</g>
</svg>
