<?xml version="1.0" encoding="utf-8"?>
<!-- Generator: Adobe Illustrator 16.0.4, SVG Export Plug-In . SVG Version: 6.00 Build 0)  -->
<!DOCTYPE svg PUBLIC "-//W3C//DTD SVG 1.0//EN" "http://www.w3.org/TR/2001/REC-SVG-20010904/DTD/svg10.dtd">
<svg version="1.0" id="Слой_1" xmlns="http://www.w3.org/2000/svg" xmlns:xlink="http://www.w3.org/1999/xlink" x="0px" y="0px"
	 width="6.684px" height="3.898px" viewBox="0 0 6.684 3.898" enable-background="new 0 0 6.684 3.898" xml:space="preserve">
<g>
	<path fill="d7d7d7" d="M0.066,3.496l0.336,0.335c0.044,0.045,0.096,0.067,0.153,0.067S0.665,3.875,0.71,3.831l2.632-2.632
		l2.631,2.632c0.045,0.045,0.097,0.067,0.154,0.067c0.059,0,0.109-0.022,0.154-0.067l0.335-0.335C6.66,3.451,6.684,3.4,6.684,3.342
		S6.66,3.232,6.616,3.188l-3.12-3.12C3.451,0.022,3.399,0,3.342,0C3.283,0,3.232,0.022,3.188,0.067l-3.121,3.12
		C0.022,3.232,0,3.284,0,3.342S0.022,3.451,0.066,3.496L0.066,3.496z"/>
</g>
</svg>
