<?xml version="1.0" encoding="utf-8"?>
<!-- Generator: Adobe Illustrator 16.0.4, SVG Export Plug-In . SVG Version: 6.00 Build 0)  -->
<!DOCTYPE svg PUBLIC "-//W3C//DTD SVG 1.0//EN" "http://www.w3.org/TR/2001/REC-SVG-20010904/DTD/svg10.dtd">
<svg version="1.0" id="Слой_1" xmlns="http://www.w3.org/2000/svg" xmlns:xlink="http://www.w3.org/1999/xlink" x="0px" y="0px"
	 width="20.29px" height="20.29px" viewBox="0 0 20.29 20.29" enable-background="new 0 0 20.29 20.29" xml:space="preserve">
<g>
	<path fill="#B7E5F6" d="M3.429,18.576v-1.715H1.714v-1.433l1.219-1.219l3.147,3.147l-1.219,1.219H3.429z M11.772,6.375
		l-7.259,7.259c-0.062,0.062-0.139,0.094-0.229,0.094c-0.196,0-0.294-0.098-0.294-0.294c0-0.09,0.031-0.166,0.094-0.229l7.259-7.259
		c0.062-0.062,0.139-0.094,0.228-0.094c0.196,0,0.295,0.099,0.295,0.295C11.866,6.237,11.835,6.312,11.772,6.375L11.772,6.375z
		 M0,14.719v5.571h5.571L16.714,9.147l-5.571-5.571L0,14.719z M19.795,3.643l-3.147-3.134C16.308,0.17,15.901,0,15.429,0
		c-0.482,0-0.884,0.17-1.206,0.509L12,2.719l5.571,5.571l2.224-2.223c0.33-0.33,0.495-0.732,0.495-1.206
		C20.29,4.397,20.125,3.991,19.795,3.643L19.795,3.643z"/>
</g>
</svg>
