<?xml version="1.0" encoding="utf-8"?>
<!-- Generator: Adobe Illustrator 16.0.4, SVG Export Plug-In . SVG Version: 6.00 Build 0)  -->
<!DOCTYPE svg PUBLIC "-//W3C//DTD SVG 1.0//EN" "http://www.w3.org/TR/2001/REC-SVG-20010904/DTD/svg10.dtd">
<svg version="1.0" id="Слой_1" xmlns="http://www.w3.org/2000/svg" xmlns:xlink="http://www.w3.org/1999/xlink" x="0px" y="0px"
	 width="15.006px" height="8.561px" viewBox="0 0 15.006 8.561" enable-background="new 0 0 15.006 8.561" xml:space="preserve">
<path fill="#CCCCCC" d="M14.938,0.54c-0.031-0.047-0.111-0.09-0.242-0.129c-0.13-0.039-0.297-0.046-0.5-0.02l-2.25,0.016
	c-0.052-0.005-0.104-0.004-0.156,0.004c-0.052,0.008-0.086,0.016-0.102,0.023s-0.028,0.014-0.039,0.02l-0.031,0.023
	c-0.025,0.016-0.055,0.043-0.086,0.082s-0.057,0.084-0.078,0.137c-0.244,0.63-0.523,1.216-0.836,1.758
	c-0.192,0.323-0.369,0.603-0.531,0.84C9.925,3.531,9.789,3.705,9.68,3.817C9.57,3.929,9.472,4.019,9.383,4.087
	C9.295,4.154,9.227,4.183,9.18,4.173C9.133,4.162,9.089,4.152,9.047,4.142C8.975,4.095,8.916,4.031,8.871,3.95
	c-0.044-0.081-0.074-0.183-0.09-0.305C8.766,3.523,8.757,3.417,8.754,3.329C8.752,3.24,8.753,3.115,8.758,2.954
	c0.006-0.162,0.008-0.271,0.008-0.328c0-0.198,0.004-0.413,0.012-0.645c0.008-0.232,0.015-0.416,0.02-0.551
	c0.006-0.136,0.008-0.279,0.008-0.43c0-0.151-0.009-0.27-0.027-0.355C8.76,0.56,8.732,0.476,8.695,0.396
	c-0.036-0.081-0.09-0.144-0.16-0.188c-0.07-0.044-0.157-0.08-0.262-0.105C7.998,0.04,7.646,0.006,7.219,0.001
	C6.25-0.01,5.628,0.053,5.352,0.188C5.242,0.246,5.144,0.324,5.055,0.423C4.961,0.537,4.948,0.6,5.016,0.61
	C5.328,0.657,5.55,0.769,5.68,0.946L5.727,1.04C5.764,1.107,5.8,1.228,5.836,1.399c0.037,0.172,0.061,0.362,0.07,0.57
	c0.026,0.38,0.026,0.706,0,0.977C5.881,3.217,5.855,3.428,5.832,3.579C5.809,3.73,5.773,3.853,5.727,3.946S5.648,4.097,5.633,4.118
	C5.617,4.139,5.604,4.152,5.594,4.157C5.526,4.183,5.456,4.196,5.383,4.196c-0.072,0-0.161-0.037-0.266-0.109
	C5.014,4.014,4.905,3.914,4.793,3.786C4.682,3.658,4.555,3.48,4.414,3.251c-0.141-0.229-0.286-0.5-0.438-0.812L3.852,2.212
	c-0.078-0.146-0.185-0.358-0.32-0.637C3.396,1.296,3.276,1.027,3.172,0.767c-0.041-0.109-0.104-0.193-0.188-0.25L2.945,0.493
	C2.92,0.472,2.878,0.45,2.82,0.427c-0.057-0.023-0.117-0.041-0.18-0.051L0.5,0.392c-0.219,0-0.367,0.049-0.445,0.148L0.023,0.587
	C0.008,0.613,0,0.654,0,0.712c0,0.057,0.016,0.127,0.047,0.211c0.312,0.734,0.652,1.442,1.02,2.125
	C1.434,3.73,1.753,4.279,2.023,4.696c0.271,0.417,0.547,0.81,0.828,1.18c0.281,0.37,0.468,0.606,0.559,0.711
	c0.092,0.104,0.163,0.182,0.215,0.234L3.82,7.009c0.125,0.125,0.309,0.274,0.551,0.449c0.242,0.174,0.511,0.346,0.805,0.516
	c0.295,0.169,0.637,0.307,1.027,0.414c0.391,0.106,0.771,0.149,1.141,0.129h0.898c0.183-0.016,0.32-0.073,0.414-0.172l0.031-0.039
	c0.021-0.031,0.041-0.08,0.059-0.145c0.019-0.065,0.027-0.137,0.027-0.215C8.769,7.722,8.785,7.521,8.824,7.341
	s0.084-0.315,0.133-0.406c0.05-0.091,0.105-0.168,0.168-0.23s0.107-0.101,0.133-0.113C9.284,6.578,9.305,6.568,9.32,6.563
	c0.125-0.042,0.272-0.001,0.441,0.121c0.17,0.122,0.328,0.273,0.477,0.453s0.327,0.381,0.535,0.605
	c0.209,0.224,0.391,0.391,0.547,0.5l0.156,0.094c0.104,0.062,0.24,0.12,0.406,0.172c0.167,0.052,0.312,0.065,0.438,0.039l2-0.031
	c0.198,0,0.352-0.033,0.461-0.098c0.109-0.065,0.175-0.137,0.195-0.215c0.021-0.078,0.022-0.167,0.004-0.266
	c-0.018-0.099-0.036-0.168-0.055-0.207c-0.018-0.039-0.035-0.072-0.051-0.098c-0.26-0.469-0.758-1.044-1.492-1.727l-0.016-0.016
	l-0.008-0.008l-0.008-0.008h-0.008c-0.333-0.318-0.544-0.531-0.633-0.641c-0.161-0.208-0.197-0.419-0.109-0.633
	c0.062-0.162,0.297-0.503,0.703-1.023c0.214-0.276,0.383-0.498,0.508-0.664c0.901-1.198,1.292-1.964,1.172-2.297L14.938,0.54z"/>
</svg>
