<?xml version="1.0" encoding="utf-8"?>
<!-- Generator: Adobe Illustrator 16.0.4, SVG Export Plug-In . SVG Version: 6.00 Build 0)  -->
<!DOCTYPE svg PUBLIC "-//W3C//DTD SVG 1.0//EN" "http://www.w3.org/TR/2001/REC-SVG-20010904/DTD/svg10.dtd">
<svg version="1.0" id="Слой_1" xmlns="http://www.w3.org/2000/svg" xmlns:xlink="http://www.w3.org/1999/xlink" x="0px" y="0px"
	 width="10px" height="8.004px" viewBox="0 0 10 8.004" enable-background="new 0 0 10 8.004" xml:space="preserve">
<g>
	<path fill="#FFFFFF" d="M10,1.563c0,0.18-0.061,0.333-0.182,0.458l-4.67,4.878L4.271,7.815C4.15,7.941,4.004,8.004,3.832,8.004
		S3.514,7.941,3.394,7.815L2.516,6.899L0.181,4.46C0.061,4.334,0,4.182,0,4.002c0-0.179,0.061-0.333,0.181-0.458l0.878-0.917
		c0.119-0.125,0.266-0.188,0.438-0.188c0.173,0,0.318,0.063,0.439,0.188l1.896,1.988l4.232-4.427C8.185,0.063,8.33,0,8.503,0
		C8.675,0,8.82,0.063,8.941,0.189l0.877,0.916C9.939,1.23,10,1.384,10,1.563z"/>
</g>
</svg>
