<?xml version="1.0" encoding="utf-8"?>
<!-- Generator: Adobe Illustrator 16.0.4, SVG Export Plug-In . SVG Version: 6.00 Build 0)  -->
<!DOCTYPE svg PUBLIC "-//W3C//DTD SVG 1.0//EN" "http://www.w3.org/TR/2001/REC-SVG-20010904/DTD/svg10.dtd">
<svg version="1.0" id="Слой_1" xmlns="http://www.w3.org/2000/svg" xmlns:xlink="http://www.w3.org/1999/xlink" x="0px" y="0px"
	 width="25.02px" height="29.134px" viewBox="0 0 25.02 29.134" enable-background="new 0 0 25.02 29.134" xml:space="preserve">
<g>
	<path fill="#F3BC40" d="M18.438,7.141c0.382,0.383,0.572,0.848,0.572,1.395v12.062c0,0.547-0.19,1.012-0.572,1.395
		s-0.845,0.574-1.39,0.574h-9.08c-0.546,0-1.009-0.191-1.39-0.574c-0.382-0.383-0.572-0.848-0.572-1.395V8.536
		c0-0.547,0.19-1.011,0.572-1.395c0.381-0.383,0.844-0.574,1.39-0.574h9.08C17.594,6.567,18.057,6.758,18.438,7.141z M17.703,8.536
		c0-0.191-0.062-0.349-0.185-0.472c-0.122-0.123-0.279-0.185-0.47-0.185h-9.08c-0.19,0-0.348,0.062-0.47,0.185
		C7.376,8.187,7.314,8.345,7.314,8.536v12.062c0,0.191,0.062,0.349,0.185,0.472c0.122,0.123,0.279,0.185,0.47,0.185h9.08
		c0.19,0,0.348-0.062,0.47-0.185c0.123-0.123,0.185-0.28,0.185-0.472V8.536z"/>
	<path fill-rule="evenodd" clip-rule="evenodd" fill="#F3BC40" d="M12.01,0h1v5h-1V0z"/>
	<path fill-rule="evenodd" clip-rule="evenodd" fill="#F3BC40" d="M7.308,0.818l0.957-0.289l1.447,4.786L8.755,5.604L7.308,0.818z"
		/>
	<path fill-rule="evenodd" clip-rule="evenodd" fill="#F3BC40" d="M7.308,28.316l0.957,0.289l1.447-4.787l-0.957-0.289L7.308,28.316
		z"/>
	<path fill-rule="evenodd" clip-rule="evenodd" fill="#F3BC40" d="M17.712,0.818l-0.958-0.289l-1.446,4.786l0.958,0.289
		L17.712,0.818z"/>
	<path fill-rule="evenodd" clip-rule="evenodd" fill="#F3BC40" d="M17.712,28.316l-0.958,0.289l-1.446-4.787l0.958-0.289
		L17.712,28.316z"/>
	<path fill-rule="evenodd" clip-rule="evenodd" fill="#F3BC40" d="M12.01,24.134h1v5h-1V24.134z"/>
	<path fill-rule="evenodd" clip-rule="evenodd" fill="#F3BC40" d="M5.01,13.567v1h-5v-1H5.01z"/>
	<path fill-rule="evenodd" clip-rule="evenodd" fill="#F3BC40" d="M25.01,13.567v1h-5v-1H25.01z"/>
	<path fill-rule="evenodd" clip-rule="evenodd" fill="#F3BC40" d="M24.425,7.384l0.5,0.866l-4.33,2.5l-0.5-0.866L24.425,7.384z"/>
	<path fill-rule="evenodd" clip-rule="evenodd" fill="#F3BC40" d="M22.356,2.513l0.707,0.707l-3.535,3.535l-0.707-0.707
		L22.356,2.513z"/>
	<path fill-rule="evenodd" clip-rule="evenodd" fill="#F3BC40" d="M0.595,7.384l-0.5,0.866l4.33,2.5l0.5-0.866L0.595,7.384z"/>
	<path fill-rule="evenodd" clip-rule="evenodd" fill="#F3BC40" d="M2.663,2.513L1.956,3.22l3.535,3.535l0.707-0.707L2.663,2.513z"/>
	<path fill-rule="evenodd" clip-rule="evenodd" fill="#F3BC40" d="M0.542,20.996L0,20.115l4.697-2.543l0.542,0.881L0.542,20.996z"/>
	<path fill-rule="evenodd" clip-rule="evenodd" fill="#F3BC40" d="M2.171,26.563l-0.768-0.719l3.836-3.598l0.767,0.72L2.171,26.563z
		"/>
	<path fill-rule="evenodd" clip-rule="evenodd" fill="#F3BC40" d="M24.477,20.996l0.543-0.881l-4.697-2.543l-0.542,0.881
		L24.477,20.996z"/>
	<path fill-rule="evenodd" clip-rule="evenodd" fill="#F3BC40" d="M22.849,26.563l0.768-0.719l-3.835-3.598l-0.768,0.72
		L22.849,26.563z"/>
</g>
</svg>
