<?xml version="1.0" encoding="utf-8"?>
<!-- Generator: Adobe Illustrator 16.0.4, SVG Export Plug-In . SVG Version: 6.00 Build 0)  -->
<!DOCTYPE svg PUBLIC "-//W3C//DTD SVG 1.0//EN" "http://www.w3.org/TR/2001/REC-SVG-20010904/DTD/svg10.dtd">
<svg version="1.0" id="Слой_1" xmlns="http://www.w3.org/2000/svg" xmlns:xlink="http://www.w3.org/1999/xlink" x="0px" y="0px"
	 width="25.679px" height="24.722px" viewBox="0 0 25.679 24.722" enable-background="new 0 0 25.679 24.722" xml:space="preserve">
<g>
	<path fill="#F3BD01" d="M24.568,24.722l-7.87-7.607c-1.884,1.594-4.086,2.39-6.608,2.39c-2.792,0-5.171-0.951-7.139-2.853
		C0.984,14.75,0,12.451,0,9.752c0-2.698,0.984-4.998,2.951-6.9C4.919,0.951,7.298,0,10.09,0c2.791,0,5.171,0.951,7.139,2.853
		c1.968,1.902,2.951,4.202,2.951,6.9c0,2.34-0.774,4.422-2.32,6.242l7.819,7.656L24.568,24.722z M18.615,9.752
		c0-2.275-0.832-4.21-2.497-5.803c-1.664-1.592-3.666-2.388-6.003-2.388c-2.338,0-4.339,0.796-6.004,2.388
		C2.447,5.542,1.614,7.477,1.614,9.752c0,2.276,0.833,4.21,2.497,5.803c1.665,1.593,3.666,2.388,6.004,2.388
		c2.337,0,4.339-0.795,6.003-2.388C17.783,13.962,18.615,12.028,18.615,9.752z"/>
</g>
</svg>
