<?xml version="1.0" encoding="utf-8"?>
<!-- Generator: Adobe Illustrator 16.0.4, SVG Export Plug-In . SVG Version: 6.00 Build 0)  -->
<!DOCTYPE svg PUBLIC "-//W3C//DTD SVG 1.0//EN" "http://www.w3.org/TR/2001/REC-SVG-20010904/DTD/svg10.dtd">
<svg version="1.0" id="Слой_1" xmlns="http://www.w3.org/2000/svg" xmlns:xlink="http://www.w3.org/1999/xlink" x="0px" y="0px"
	 width="13.998px" height="13.998px" viewBox="0 0 13.998 13.998" enable-background="new 0 0 13.998 13.998" xml:space="preserve">
<g>
	<path fill="#6ECBED" d="M13.06,3.485c0.625,1.073,0.938,2.243,0.938,3.514c0,1.27-0.313,2.44-0.938,3.513
		c-0.626,1.072-1.476,1.922-2.548,2.548c-1.072,0.625-2.243,0.938-3.513,0.938s-2.441-0.313-3.514-0.938
		c-1.072-0.626-1.921-1.476-2.547-2.548S0,8.269,0,6.999c0-1.271,0.312-2.44,0.938-3.514c0.626-1.071,1.475-1.921,2.547-2.547
		S5.729,0,6.999,0s2.44,0.312,3.513,0.938S12.434,2.414,13.06,3.485z M11.701,6.99c0-0.164-0.055-0.301-0.164-0.41l-3.299-3.3
		L7.409,2.451C7.3,2.342,7.163,2.287,6.999,2.287s-0.301,0.055-0.41,0.164L5.76,3.28l-3.299,3.3C2.352,6.689,2.297,6.826,2.297,6.99
		s0.055,0.301,0.164,0.409l0.829,0.83C3.399,8.338,3.536,8.393,3.7,8.393s0.301-0.055,0.41-0.163l1.723-1.723v4.575
		c0,0.157,0.058,0.295,0.173,0.41s0.252,0.173,0.41,0.173h1.166c0.158,0,0.295-0.058,0.41-0.173s0.173-0.253,0.173-0.41V6.507
		l1.723,1.723c0.115,0.115,0.252,0.173,0.41,0.173s0.295-0.058,0.41-0.173l0.829-0.83C11.646,7.291,11.701,7.154,11.701,6.99z"/>
</g>
</svg>
