<?xml version="1.0" encoding="UTF-8" standalone="no"?>
<!-- Generator: Adobe Illustrator 16.0.4, SVG Export Plug-In . SVG Version: 6.00 Build 0)  -->

<svg
   xmlns:dc="http://purl.org/dc/elements/1.1/"
   xmlns:cc="http://creativecommons.org/ns#"
   xmlns:rdf="http://www.w3.org/1999/02/22-rdf-syntax-ns#"
   xmlns:svg="http://www.w3.org/2000/svg"
   xmlns="http://www.w3.org/2000/svg"
   xmlns:sodipodi="http://sodipodi.sourceforge.net/DTD/sodipodi-0.dtd"
   xmlns:inkscape="http://www.inkscape.org/namespaces/inkscape"
   version="1.0"
   id="Слой_1"
   x="0px"
   y="0px"
   width="31"
   height="31"
   viewBox="0 0 45.623 46"
   enable-background="new 0 0 45.623 46"
   xml:space="preserve"
   inkscape:version="0.91 r13725"
   sodipodi:docname="ico-27-small.svg"><metadata
     id="metadata11"><rdf:RDF><cc:Work
         rdf:about=""><dc:format>image/svg+xml</dc:format><dc:type
           rdf:resource="http://purl.org/dc/dcmitype/StillImage" /><dc:title></dc:title></cc:Work></rdf:RDF></metadata><defs
     id="defs9" /><sodipodi:namedview
     pagecolor="#ffffff"
     bordercolor="#666666"
     borderopacity="1"
     objecttolerance="10"
     gridtolerance="10"
     guidetolerance="10"
     inkscape:pageopacity="0"
     inkscape:pageshadow="2"
     inkscape:window-width="1266"
     inkscape:window-height="681"
     id="namedview7"
     showgrid="false"
     inkscape:zoom="5.1304348"
     inkscape:cx="22.811501"
     inkscape:cy="23"
     inkscape:window-x="0"
     inkscape:window-y="0"
     inkscape:window-maximized="0"
     inkscape:current-layer="Слой_1" /><g
     id="g3"><path
       d="M 22.812,0 C 10.213,0 0,10.298 0,23 0,35.702 10.213,46 22.812,46 35.411,46 45.624,35.702 45.624,23 45.623,10.298 35.41,0 22.812,0 Z m 5.401,18.789 -0.287,3.589 -3.623,0 0,12.438 -4.61,0 0,-12.438 -2.446,0 0,-3.589 2.446,0 0,-1.124 0,-1.088 0,-0.193 c 0,-1.06 0.031,-2.693 0.795,-3.721 0.796,-1.056 1.905,-1.794 3.815,-1.794 0,0 3.082,0 4.387,0.449 l -0.604,3.653 c -1.019,-0.286 -1.968,-0.286 -1.968,-0.286 -0.955,0 -1.814,0.351 -1.814,1.313 l 0,0.385 0,1.281 0,1.124 3.909,0 z"
       id="path5"
       inkscape:connector-curvature="0"
       style="fill:#4561a2" /></g></svg>