<?xml version="1.0" encoding="utf-8"?>
<!-- Generator: Adobe Illustrator 16.0.4, SVG Export Plug-In . SVG Version: 6.00 Build 0)  -->
<!DOCTYPE svg PUBLIC "-//W3C//DTD SVG 1.0//EN" "http://www.w3.org/TR/2001/REC-SVG-20010904/DTD/svg10.dtd">
<svg version="1.0" id="Слой_1" xmlns="http://www.w3.org/2000/svg" xmlns:xlink="http://www.w3.org/1999/xlink" x="0px" y="0px"
	 width="14.004px" height="13.993px" viewBox="0 0 14.004 13.993" enable-background="new 0 0 14.004 13.993" xml:space="preserve">
<g>
	<path fill="#F3BD01" d="M14.004,5.422c0,0.129-0.073,0.271-0.219,0.423L10.73,8.967l0.723,4.409c0.006,0.041,0.009,0.1,0.009,0.176
		c0,0.123-0.029,0.228-0.089,0.313c-0.059,0.085-0.145,0.128-0.256,0.128c-0.107,0-0.219-0.036-0.337-0.106l-3.778-2.081
		l-3.779,2.081c-0.123,0.07-0.235,0.106-0.336,0.106c-0.118,0-0.207-0.042-0.266-0.128c-0.059-0.085-0.088-0.19-0.088-0.313
		c0-0.035,0.005-0.094,0.017-0.176l0.724-4.409L0.21,5.846C0.07,5.687,0,5.546,0,5.422C0,5.205,0.156,5.07,0.471,5.017l4.225-0.644
		l1.894-4.012C6.695,0.12,6.834,0,7.002,0s0.305,0.12,0.412,0.361l1.894,4.012l4.225,0.644C13.847,5.07,14.004,5.205,14.004,5.422z"
		/>
</g>
</svg>
