<?xml version="1.0" encoding="utf-8"?>
<!-- Generator: Adobe Illustrator 16.0.4, SVG Export Plug-In . SVG Version: 6.00 Build 0)  -->
<!DOCTYPE svg PUBLIC "-//W3C//DTD SVG 1.0//EN" "http://www.w3.org/TR/2001/REC-SVG-20010904/DTD/svg10.dtd">
<svg version="1.0" id="Слой_1" xmlns="http://www.w3.org/2000/svg" xmlns:xlink="http://www.w3.org/1999/xlink" x="0px" y="0px"
	 width="19px" height="18px" viewBox="0 0 19 18" enable-background="new 0 0 19 18" xml:space="preserve">
<g>
	<path fill="#D1F1FF" d="M4.498,13.5H2c-0.968,0-1.5-0.533-1.5-1.5V2c0-0.967,0.532-1.5,1.5-1.5h15c0.953,0,1.5,0.564,1.5,1.548
		v9.906c0,0.982-0.547,1.545-1.5,1.545H8.618l-4.105,3.434L4.498,13.5z"/>
	<path fill="#6ECBED" d="M17,1c0.43,0,1,0.109,1,1.048v9.906C18,12.892,17.43,13,17,13H8.8H8.437l-0.278,0.233l-3.15,2.635L5,13.996
		L4.996,13H4H2c-0.691,0-1-0.309-1-1V2c0-0.691,0.309-1,1-1H17 M17,0H2C0.758,0,0,0.748,0,2v10c0,1.252,0.758,2,2,2h2l0.018,4
		L8.8,14H17c1.242,0,2-0.793,2-2.045V2.048C19,0.796,18.242,0,17,0L17,0z"/>
</g>
</svg>
