<?xml version="1.0" encoding="UTF-8" standalone="no"?>
<!-- Generator: Adobe Illustrator 16.0.4, SVG Export Plug-In . SVG Version: 6.00 Build 0)  -->

<svg
   xmlns:dc="http://purl.org/dc/elements/1.1/"
   xmlns:cc="http://creativecommons.org/ns#"
   xmlns:rdf="http://www.w3.org/1999/02/22-rdf-syntax-ns#"
   xmlns:svg="http://www.w3.org/2000/svg"
   xmlns="http://www.w3.org/2000/svg"
   xmlns:sodipodi="http://sodipodi.sourceforge.net/DTD/sodipodi-0.dtd"
   xmlns:inkscape="http://www.inkscape.org/namespaces/inkscape"
   version="1.0"
   id="Слой_1"
   x="0px"
   y="0px"
   width="31"
   height="31"
   viewBox="0 0 45.623 46"
   enable-background="new 0 0 45.623 46"
   xml:space="preserve"
   inkscape:version="0.91 r13725"
   sodipodi:docname="ico-28.svg"><metadata
     id="metadata13"><rdf:RDF><cc:Work
         rdf:about=""><dc:format>image/svg+xml</dc:format><dc:type
           rdf:resource="http://purl.org/dc/dcmitype/StillImage" /><dc:title></dc:title></cc:Work></rdf:RDF></metadata><defs
     id="defs11" /><sodipodi:namedview
     pagecolor="#ffffff"
     bordercolor="#666666"
     borderopacity="1"
     objecttolerance="10"
     gridtolerance="10"
     guidetolerance="10"
     inkscape:pageopacity="0"
     inkscape:pageshadow="2"
     inkscape:window-width="1223"
     inkscape:window-height="685"
     id="namedview9"
     showgrid="false"
     inkscape:zoom="5.1304348"
     inkscape:cx="22.811501"
     inkscape:cy="23"
     inkscape:window-x="0"
     inkscape:window-y="0"
     inkscape:window-maximized="0"
     inkscape:current-layer="Слой_1" /><g
     id="g3"><path
       d="m 23.281,19.105 c 0.744,0 1.454,-0.307 1.961,-0.853 1.082,-1.125 1.082,-3 0,-4.125 -0.507,-0.545 -1.217,-0.853 -1.961,-0.853 -0.744,0 -1.42,0.307 -1.961,0.853 -1.082,1.125 -1.082,2.999 0,4.125 0.541,0.546 1.217,0.853 1.961,0.853 z"
       id="path5"
       inkscape:connector-curvature="0"
       style="fill:#f27400" /><path
       d="M 22.812,0 C 10.213,0 0,10.298 0,23 0,35.702 10.213,46 22.812,46 35.411,46 45.624,35.703 45.624,23 45.624,10.297 35.41,0 22.812,0 Z m -4.298,11.196 c 1.285,-1.33 2.976,-2.046 4.768,-2.046 1.792,0 3.482,0.717 4.768,2.046 2.637,2.761 2.637,7.228 0,9.988 -1.285,1.33 -2.976,2.045 -4.768,2.045 -1.792,0 -3.482,-0.716 -4.768,-2.045 -2.604,-2.761 -2.604,-7.227 0,-9.988 z m 11.259,21.477 c 0.777,0.818 0.777,2.113 0,2.932 -0.406,0.409 -0.913,0.613 -1.421,0.613 -0.507,0 -1.014,-0.204 -1.386,-0.613 l -3.686,-3.853 -3.651,3.853 c -0.777,0.817 -2.029,0.817 -2.807,0 -0.777,-0.819 -0.777,-2.114 0,-2.932 l 3.82,-4.022 c -1.284,-0.239 -2.535,-0.716 -3.753,-1.364 -0.98,-0.545 -1.353,-1.807 -0.845,-2.795 0.507,-1.023 1.725,-1.432 2.671,-0.887 2.874,1.568 6.289,1.568 9.129,-0.034 0.946,-0.511 2.164,-0.136 2.671,0.886 0.507,0.989 0.136,2.25 -0.812,2.795 -1.217,0.648 -2.468,1.125 -3.786,1.398 l 3.856,4.023 z"
       id="path7"
       inkscape:connector-curvature="0"
       style="fill:#f27400" /></g></svg>