<?xml version="1.0" encoding="UTF-8" standalone="no"?>
<!-- Generator: Adobe Illustrator 16.0.4, SVG Export Plug-In . SVG Version: 6.00 Build 0)  -->

<svg
   xmlns:dc="http://purl.org/dc/elements/1.1/"
   xmlns:cc="http://creativecommons.org/ns#"
   xmlns:rdf="http://www.w3.org/1999/02/22-rdf-syntax-ns#"
   xmlns:svg="http://www.w3.org/2000/svg"
   xmlns="http://www.w3.org/2000/svg"
   xmlns:sodipodi="http://sodipodi.sourceforge.net/DTD/sodipodi-0.dtd"
   xmlns:inkscape="http://www.inkscape.org/namespaces/inkscape"
   version="1.0"
   id="Слой_1"
   x="0px"
   y="0px"
   width="6"
   height="10.5"
   viewBox="0 0 3.898 6.683"
   enable-background="new 0 0 3.898 6.683"
   xml:space="preserve"
   inkscape:version="0.91 r13725"
   sodipodi:docname="ico-arrow-next.svg"><metadata
     id="metadata11"><rdf:RDF><cc:Work
         rdf:about=""><dc:format>image/svg+xml</dc:format><dc:type
           rdf:resource="http://purl.org/dc/dcmitype/StillImage" /><dc:title></dc:title></cc:Work></rdf:RDF></metadata><defs
     id="defs9" /><sodipodi:namedview
     pagecolor="#ffffff"
     bordercolor="#666666"
     borderopacity="1"
     objecttolerance="10"
     gridtolerance="10"
     guidetolerance="10"
     inkscape:pageopacity="0"
     inkscape:pageshadow="2"
     inkscape:window-width="1283"
     inkscape:window-height="739"
     id="namedview7"
     showgrid="false"
     inkscape:zoom="35.313482"
     inkscape:cx="-1.5199301"
     inkscape:cy="5.6069238"
     inkscape:window-x="0"
     inkscape:window-y="0"
     inkscape:window-maximized="0"
     inkscape:current-layer="Слой_1" /><g
     id="g3"><path
       d="M 0.402,0.067 0.067,0.402 C 0.023,0.446 0,0.498 0,0.556 0,0.614 0.023,0.665 0.067,0.71 L 2.699,3.342 0.067,5.973 C 0.023,6.018 0,6.069 0,6.127 0,6.185 0.023,6.236 0.067,6.281 L 0.402,6.616 C 0.447,6.66 0.498,6.683 0.556,6.683 0.614,6.683 0.665,6.661 0.71,6.616 L 3.83,3.495 C 3.875,3.451 3.898,3.4 3.898,3.342 3.898,3.284 3.875,3.232 3.831,3.188 L 0.711,0.067 C 0.666,0.022 0.614,0 0.557,0 0.498,0 0.447,0.022 0.402,0.067 l 0,0 z"
       id="path5"
       inkscape:connector-curvature="0"
       style="fill:#050f1f" /></g></svg>