<?xml version="1.0" encoding="utf-8"?>
<!-- Generator: Adobe Illustrator 16.0.4, SVG Export Plug-In . SVG Version: 6.00 Build 0)  -->
<!DOCTYPE svg PUBLIC "-//W3C//DTD SVG 1.0//EN" "http://www.w3.org/TR/2001/REC-SVG-20010904/DTD/svg10.dtd">
<svg version="1.0" id="Слой_1" xmlns="http://www.w3.org/2000/svg" xmlns:xlink="http://www.w3.org/1999/xlink" x="0px" y="0px"
	 width="6.684px" height="3.898px" viewBox="0 0 6.684 3.898" enable-background="new 0 0 6.684 3.898" xml:space="preserve">
<g>
	<path fill="#CCCCCC" d="M6.617,0.402L6.281,0.067C6.237,0.022,6.186,0,6.128,0S6.019,0.022,5.974,0.067L3.342,2.699L0.711,0.067
		C0.666,0.022,0.614,0,0.557,0C0.498,0,0.447,0.022,0.402,0.067L0.067,0.402C0.023,0.447,0,0.498,0,0.556s0.023,0.11,0.067,0.154
		l3.12,3.12c0.045,0.045,0.097,0.067,0.154,0.067c0.059,0,0.109-0.022,0.154-0.067l3.121-3.12c0.044-0.044,0.066-0.096,0.066-0.154
		S6.661,0.447,6.617,0.402L6.617,0.402z"/>
</g>
</svg>
