<?xml version="1.0" encoding="utf-8"?>
<!-- Generator: Adobe Illustrator 16.0.4, SVG Export Plug-In . SVG Version: 6.00 Build 0)  -->
<!DOCTYPE svg PUBLIC "-//W3C//DTD SVG 1.0//EN" "http://www.w3.org/TR/2001/REC-SVG-20010904/DTD/svg10.dtd">
<svg version="1.0" id="Слой_1" xmlns="http://www.w3.org/2000/svg" xmlns:xlink="http://www.w3.org/1999/xlink" x="0px" y="0px"
	 width="17.989px" height="17.961px" viewBox="0 0 17.989 17.961" enable-background="new 0 0 17.989 17.961" xml:space="preserve">
<g>
	<path fill="#CCCCCC" d="M17.793,17.769c-0.269,0.257-0.53,0.257-0.786,0l-5.447-5.467c-1.305,1.144-2.829,1.717-4.575,1.717
		c-1.933,0-3.579-0.684-4.941-2.05C0.682,10.602,0,8.949,0,7.009C0,5.07,0.682,3.417,2.043,2.05C3.405,0.683,5.052,0,6.984,0
		s3.58,0.683,4.941,2.05c1.362,1.367,2.043,3.021,2.043,4.959c0,1.682-0.536,3.177-1.606,4.486l5.413,5.502
		C18.055,17.253,18.061,17.511,17.793,17.769z M12.886,7.009c0-1.635-0.575-3.026-1.729-4.17C10.005,1.693,8.62,1.121,7.002,1.121
		S3.999,1.693,2.846,2.839c-1.151,1.144-1.729,2.535-1.729,4.17s0.577,3.026,1.729,4.171c1.153,1.145,2.538,1.716,4.156,1.716
		s3.003-0.572,4.155-1.716C12.311,10.035,12.886,8.645,12.886,7.009z"/>
</g>
</svg>
