<?xml version="1.0" encoding="utf-8"?>
<!-- Generator: Adobe Illustrator 16.0.4, SVG Export Plug-In . SVG Version: 6.00 Build 0)  -->
<!DOCTYPE svg PUBLIC "-//W3C//DTD SVG 1.0//EN" "http://www.w3.org/TR/2001/REC-SVG-20010904/DTD/svg10.dtd">
<svg version="1.0" id="Слой_1" xmlns="http://www.w3.org/2000/svg" xmlns:xlink="http://www.w3.org/1999/xlink" x="0px" y="0px"
	 width="74px" height="74px" viewBox="0 0 74 74" enable-background="new 0 0 74 74" xml:space="preserve">
<g>
	<path fill="#D1F1FF" d="M74,37c0,10.214-3.613,18.934-10.84,26.16S47.212,74,37,74c-10.215,0-18.934-3.613-26.16-10.84
		S0,47.214,0,37c0-10.213,3.613-18.934,10.84-26.16S26.785,0,37,0c10.212,0,18.934,3.613,26.16,10.84S74,26.787,74,37z M69.375,37
		c0-8.961-3.157-16.597-9.467-22.908C53.596,7.781,45.961,4.625,37,4.625s-16.6,3.156-22.908,9.467
		C7.779,20.403,4.625,28.039,4.625,37s3.154,16.621,9.467,22.98C20.4,66.34,28.039,69.52,37,69.52s16.596-3.18,22.908-9.539
		C66.218,53.621,69.375,45.961,69.375,37z M54.85,35.338c0.434,0.434,0.65,0.988,0.65,1.662c0,0.675-0.217,1.229-0.65,1.662
		s-0.989,0.65-1.662,0.65H39.312v13.875c0,0.675-0.217,1.229-0.65,1.662S37.673,55.5,37,55.5c-0.676,0-1.229-0.217-1.662-0.65
		s-0.65-0.987-0.65-1.662V39.312H20.812c-0.676,0-1.229-0.217-1.662-0.65S18.5,37.675,18.5,37c0-0.674,0.217-1.229,0.65-1.662
		s0.986-0.65,1.662-0.65h13.875V20.812c0-0.674,0.217-1.229,0.65-1.662S36.324,18.5,37,18.5c0.673,0,1.229,0.217,1.662,0.65
		s0.65,0.988,0.65,1.662v13.875h13.875C53.86,34.688,54.416,34.904,54.85,35.338z"/>
</g>
</svg>
