<?xml version="1.0" encoding="utf-8"?>
<!-- Generator: Adobe Illustrator 16.0.4, SVG Export Plug-In . SVG Version: 6.00 Build 0)  -->
<!DOCTYPE svg PUBLIC "-//W3C//DTD SVG 1.0//EN" "http://www.w3.org/TR/2001/REC-SVG-20010904/DTD/svg10.dtd">
<svg version="1.0" id="Слой_1" xmlns="http://www.w3.org/2000/svg" xmlns:xlink="http://www.w3.org/1999/xlink" x="0px" y="0px"
	 width="45.623px" height="46px" viewBox="0 0 45.623 46">
<g>
	<path fill="#527398" d="M25.55,24.287c-0.312-0.105-0.729-0.175-1.284-0.209c-0.521,0-1.243,0-2.146,0h-0.938v5.103h0.277
		c1.319,0,2.216-0.035,2.736-0.035c0.486-0.036,1.007-0.14,1.527-0.385c0.485-0.175,0.798-0.49,1.041-0.875
		c0.208-0.385,0.312-0.836,0.312-1.292c0-0.666-0.139-1.155-0.382-1.504C26.418,24.742,26.07,24.497,25.55,24.287z"/>
	<path fill="#527398" d="M23.642,20.548c0.347,0,0.729-0.104,1.075-0.28c0.417-0.175,0.694-0.455,0.833-0.77
		c0.174-0.35,0.243-0.735,0.243-1.19c0-0.348-0.069-0.662-0.243-1.012c-0.173-0.351-0.416-0.595-0.798-0.77
		c-0.312-0.141-0.729-0.21-1.181-0.246c-0.444,0-1.139,0-2.041,0h-0.348v4.298h0.659C22.71,20.58,23.3,20.58,23.642,20.548z"/>
	<path fill="#527398" d="M22.812,0C10.213,0,0,10.298,0,23c0,12.702,10.213,23,22.812,23s22.812-10.298,22.812-23
		C45.623,10.298,35.41,0,22.812,0z M31.722,29.354c-0.382,0.732-0.902,1.362-1.527,1.887c-0.763,0.592-1.596,1.012-2.527,1.292
		c-0.902,0.244-2.048,0.385-3.436,0.385h-8.075V12.544h7.109c1.486,0,2.597,0.07,3.395,0.175c0.764,0.104,1.452,0.35,2.111,0.734
		c0.729,0.383,1.284,0.907,1.632,1.572c0.347,0.63,0.555,1.397,0.555,2.272c0,0.979-0.277,1.852-0.764,2.621
		c-0.485,0.767-1.18,1.362-2.013,1.712v0.105c1.215,0.28,2.222,0.805,2.985,1.642c0.729,0.805,1.104,1.921,1.104,3.286
		C32.271,27.675,32.104,28.584,31.722,29.354z"/>
</g>
</svg>
