<?xml version="1.0" encoding="utf-8"?>
<!-- Generator: Adobe Illustrator 16.0.4, SVG Export Plug-In . SVG Version: 6.00 Build 0)  -->
<!DOCTYPE svg PUBLIC "-//W3C//DTD SVG 1.0//EN" "http://www.w3.org/TR/2001/REC-SVG-20010904/DTD/svg10.dtd">
<svg version="1.0" id="Слой_1" xmlns="http://www.w3.org/2000/svg" xmlns:xlink="http://www.w3.org/1999/xlink" x="0px" y="0px"
	 width="11px" height="12px" viewBox="0 0 11 12" enable-background="new 0 0 11 12" xml:space="preserve">
<g>
	<path fill="#CCCCCC" d="M3.93,4.57C3.883,4.523,3.823,4.5,3.75,4.5h-0.5c-0.073,0-0.133,0.023-0.18,0.07S3,4.677,3,4.75v4.5
		c0,0.072,0.023,0.133,0.07,0.18S3.177,9.5,3.25,9.5h0.5c0.073,0,0.133-0.023,0.18-0.07S4,9.322,4,9.25v-4.5
		C4,4.677,3.977,4.617,3.93,4.57z M5.93,4.57C5.883,4.523,5.823,4.5,5.75,4.5h-0.5c-0.073,0-0.133,0.023-0.18,0.07S5,4.677,5,4.75
		v4.5c0,0.072,0.023,0.133,0.07,0.18S5.177,9.5,5.25,9.5h0.5c0.073,0,0.133-0.023,0.18-0.07S6,9.322,6,9.25v-4.5
		C6,4.677,5.977,4.617,5.93,4.57z M7.93,4.57C7.883,4.523,7.823,4.5,7.75,4.5h-0.5c-0.073,0-0.133,0.023-0.18,0.07S7,4.677,7,4.75
		v4.5c0,0.072,0.023,0.133,0.07,0.18S7.177,9.5,7.25,9.5h0.5c0.073,0,0.133-0.023,0.18-0.07S8,9.322,8,9.25v-4.5
		C8,4.677,7.977,4.617,7.93,4.57z M8.945,10.723c-0.036,0.096-0.074,0.166-0.113,0.211C8.793,10.978,8.766,11,8.75,11h-6.5
		c-0.016,0-0.043-0.022-0.082-0.066c-0.039-0.045-0.077-0.115-0.113-0.211C2.019,10.626,2,10.521,2,10.406V3h7v7.406
		C9,10.521,8.981,10.626,8.945,10.723z M4.133,1.086C4.169,1.039,4.214,1.01,4.266,1h2.477c0.052,0.01,0.097,0.039,0.133,0.086
		L7.25,2h-3.5L4.133,1.086z M10.93,2.07C10.883,2.023,10.823,2,10.75,2H8.336L7.789,0.695C7.711,0.502,7.57,0.338,7.367,0.203
		C7.164,0.067,6.958,0,6.75,0h-2.5C4.042,0,3.836,0.067,3.633,0.203C3.43,0.338,3.289,0.502,3.211,0.695L2.664,2H0.25
		C0.177,2,0.117,2.023,0.07,2.07S0,2.177,0,2.25v0.5c0,0.072,0.023,0.133,0.07,0.18S0.177,3,0.25,3H1v7.438
		c0,0.432,0.122,0.801,0.367,1.105S1.906,12,2.25,12h6.5c0.344,0,0.638-0.158,0.883-0.473C9.878,11.212,10,10.838,10,10.406V3h0.75
		c0.073,0,0.133-0.023,0.18-0.07S11,2.822,11,2.75v-0.5C11,2.177,10.977,2.117,10.93,2.07z"/>
</g>
</svg>
