<?xml version="1.0" encoding="utf-8"?>
<!-- Generator: Adobe Illustrator 16.0.4, SVG Export Plug-In . SVG Version: 6.00 Build 0)  -->
<!DOCTYPE svg PUBLIC "-//W3C//DTD SVG 1.0//EN" "http://www.w3.org/TR/2001/REC-SVG-20010904/DTD/svg10.dtd">
<svg version="1.0" id="Слой_1" xmlns="http://www.w3.org/2000/svg" xmlns:xlink="http://www.w3.org/1999/xlink" x="0px" y="0px"
	 width="13px" height="13px" viewBox="0 0 13 13" enable-background="new 0 0 13 13" xml:space="preserve">
<g>
	<path fill="#A7DFF4" d="M13,6.5c0,1.794-0.635,3.326-1.904,4.596S8.294,13,6.5,13s-3.326-0.635-4.596-1.904S0,8.294,0,6.5
		s0.635-3.326,1.904-4.596S4.706,0,6.5,0s3.326,0.635,4.596,1.904S13,4.706,13,6.5z M12.188,6.5c0-1.574-0.555-2.916-1.663-4.024
		C9.416,1.367,8.074,0.812,6.5,0.812S3.584,1.367,2.476,2.476C1.367,3.584,0.812,4.926,0.812,6.5s0.555,2.92,1.663,4.037
		s2.45,1.676,4.024,1.676s2.916-0.559,4.024-1.676S12.188,8.074,12.188,6.5z M8.836,8.252c0.067,0.085,0.102,0.182,0.102,0.292
		c0,0.11-0.034,0.208-0.102,0.292c-0.203,0.187-0.398,0.187-0.584,0L6.246,6.805H6.221C6.136,6.72,6.094,6.618,6.094,6.5V2.438
		c0-0.118,0.038-0.216,0.114-0.292S6.382,2.031,6.5,2.031s0.216,0.038,0.292,0.114s0.114,0.174,0.114,0.292v3.91L8.836,8.252z"/>
</g>
</svg>
