<?xml version="1.0" encoding="utf-8"?>
<!-- Generator: Adobe Illustrator 16.0.4, SVG Export Plug-In . SVG Version: 6.00 Build 0)  -->
<!DOCTYPE svg PUBLIC "-//W3C//DTD SVG 1.0//EN" "http://www.w3.org/TR/2001/REC-SVG-20010904/DTD/svg10.dtd">
<svg version="1.0" id="Слой_1" xmlns="http://www.w3.org/2000/svg" xmlns:xlink="http://www.w3.org/1999/xlink" x="0px" y="0px"
	 width="17.999px" height="14.007px" viewBox="0 0 17.999 14.007" enable-background="new 0 0 17.999 14.007" xml:space="preserve">
<g>
	<path fill="#FFFFFF" d="M17.999,2.735c0,0.314-0.108,0.582-0.325,0.802l-8.407,8.536l-1.579,1.604
		c-0.217,0.221-0.48,0.33-0.789,0.33c-0.311,0-0.574-0.109-0.79-0.33l-1.579-1.604L0.325,7.806C0.109,7.585,0,7.318,0,7.004
		s0.109-0.582,0.325-0.802l1.579-1.604c0.217-0.221,0.48-0.33,0.79-0.33s0.573,0.109,0.79,0.33l3.414,3.479l7.617-7.747
		C14.732,0.11,14.995,0,15.305,0s0.573,0.11,0.79,0.33l1.579,1.604C17.891,2.154,17.999,2.422,17.999,2.735z"/>
</g>
</svg>
