<?xml version="1.0" encoding="utf-8"?>
<!-- Generator: Adobe Illustrator 16.0.4, SVG Export Plug-In . SVG Version: 6.00 Build 0)  -->
<!DOCTYPE svg PUBLIC "-//W3C//DTD SVG 1.0//EN" "http://www.w3.org/TR/2001/REC-SVG-20010904/DTD/svg10.dtd">
<svg version="1.0" id="Слой_1" xmlns="http://www.w3.org/2000/svg" xmlns:xlink="http://www.w3.org/1999/xlink" x="0px" y="0px"
	 width="20.866px" height="19.714px" viewBox="0 0 20.866 19.714" enable-background="new 0 0 20.866 19.714" xml:space="preserve">
<g>
	<path fill="#F9DE80" d="M20.37,9.214l-8.719-8.719C11.321,0.166,10.915,0,10.433,0C9.941,0,9.54,0.166,9.228,0.496L0.509,9.214
		C0.169,9.554,0,9.96,0,10.433c0,0.464,0.169,0.866,0.509,1.206l1.004,1.004c0.322,0.34,0.724,0.509,1.206,0.509
		c0.481,0,0.884-0.169,1.205-0.509l3.938-3.924v9.429c0,0.464,0.168,0.841,0.502,1.132c0.335,0.29,0.739,0.435,1.212,0.435h1.715
		c0.473,0,0.877-0.145,1.212-0.435c0.335-0.291,0.502-0.668,0.502-1.132V8.719l3.938,3.924c0.321,0.34,0.724,0.509,1.206,0.509
		c0.473,0,0.879-0.169,1.219-0.509l1.004-1.004c0.33-0.349,0.496-0.75,0.496-1.206C20.866,9.969,20.7,9.562,20.37,9.214L20.37,9.214
		z"/>
</g>
</svg>
