<?xml version="1.0" encoding="utf-8"?>
<!-- Generator: Adobe Illustrator 16.0.4, SVG Export Plug-In . SVG Version: 6.00 Build 0)  -->
<!DOCTYPE svg PUBLIC "-//W3C//DTD SVG 1.0//EN" "http://www.w3.org/TR/2001/REC-SVG-20010904/DTD/svg10.dtd">
<svg version="1.0" id="Слой_1" xmlns="http://www.w3.org/2000/svg" xmlns:xlink="http://www.w3.org/1999/xlink" x="0px" y="0px"
	 width="18px" height="18px" viewBox="0 0 18 18" enable-background="new 0 0 18 18" xml:space="preserve">
<g>
	<path fill="#CCCCCC" d="M18,9c0,2.485-0.879,4.606-2.637,6.363C13.605,17.121,11.484,18,9,18s-4.605-0.879-6.363-2.637
		C0.879,13.606,0,11.485,0,9c0-2.484,0.879-4.605,2.637-6.363S6.516,0,9,0s4.605,0.879,6.363,2.637S18,6.516,18,9z M16.875,9
		c0-2.18-0.768-4.036-2.303-5.572C13.037,1.893,11.18,1.125,9,1.125S4.963,1.893,3.428,3.428C1.893,4.964,1.125,6.82,1.125,9
		s0.768,4.043,2.303,5.59c1.535,1.546,3.393,2.32,5.572,2.32s4.037-0.774,5.572-2.32C16.107,13.043,16.875,11.18,16.875,9z
		 M12.199,6.609L9.809,9l2.391,2.391c0.258,0.258,0.252,0.522-0.018,0.791c-0.27,0.27-0.533,0.276-0.791,0.018L9,9.809l-2.391,2.39
		c-0.258,0.258-0.521,0.252-0.791-0.018c-0.27-0.269-0.275-0.533-0.018-0.791L8.191,9L5.801,6.609
		C5.543,6.352,5.549,6.089,5.818,5.818c0.27-0.269,0.533-0.275,0.791-0.018L9,8.191l2.391-2.391
		c0.258-0.257,0.521-0.251,0.791,0.018C12.451,6.089,12.457,6.352,12.199,6.609z"/>
</g>
</svg>
