<?xml version="1.0" encoding="utf-8"?>
<!-- Generator: Adobe Illustrator 16.0.4, SVG Export Plug-In . SVG Version: 6.00 Build 0)  -->
<!DOCTYPE svg PUBLIC "-//W3C//DTD SVG 1.0//EN" "http://www.w3.org/TR/2001/REC-SVG-20010904/DTD/svg10.dtd">
<svg version="1.0" id="Слой_1" xmlns="http://www.w3.org/2000/svg" xmlns:xlink="http://www.w3.org/1999/xlink" x="0px" y="0px"
	 width="12px" height="12px" viewBox="0 0 12 12" enable-background="new 0 0 12 12" xml:space="preserve">
<path fill="#CCCCCC" d="M10.5,10.48c-0.094,0.091-0.205,0.137-0.336,0.137H1.812c-0.135,0-0.248-0.046-0.34-0.137
	c-0.091-0.092-0.137-0.205-0.137-0.34V5.078h1.102C2.334,5.406,2.281,5.747,2.281,6.102c0,1,0.365,1.853,1.094,2.559
	c0.729,0.705,1.607,1.059,2.633,1.059c0.678,0,1.303-0.162,1.875-0.484c0.573-0.323,1.026-0.762,1.359-1.316
	c0.334-0.555,0.5-1.16,0.5-1.816c0-0.354-0.052-0.695-0.156-1.023h1.055v5.062C10.641,10.275,10.594,10.389,10.5,10.48z
	 M6.008,8.312c-0.661,0-1.228-0.229-1.699-0.684C3.838,7.173,3.602,6.622,3.602,5.977c0-0.646,0.236-1.197,0.707-1.652
	C4.78,3.868,5.347,3.641,6.008,3.641c0.667,0,1.236,0.228,1.707,0.684C8.187,4.779,8.422,5.33,8.422,5.977
	c0,0.646-0.235,1.196-0.707,1.652C7.244,8.084,6.675,8.312,6.008,8.312L6.008,8.312z M10.484,3.547
	c-0.104,0.104-0.231,0.156-0.383,0.156H8.742c-0.15,0-0.278-0.053-0.383-0.156C8.256,3.442,8.203,3.314,8.203,3.164V1.875
	c0-0.146,0.053-0.272,0.156-0.379c0.104-0.107,0.232-0.16,0.383-0.16h1.359c0.151,0,0.279,0.053,0.383,0.16
	c0.104,0.106,0.156,0.232,0.156,0.379v1.289C10.641,3.314,10.589,3.442,10.484,3.547z M11.547,0.453C11.245,0.15,10.883,0,10.461,0
	H1.539C1.117,0,0.756,0.15,0.453,0.453C0.151,0.755,0,1.117,0,1.539v8.922c0,0.422,0.151,0.783,0.453,1.086
	C0.756,11.849,1.117,12,1.539,12h8.922c0.422,0,0.784-0.151,1.086-0.453C11.85,11.244,12,10.883,12,10.461V1.539
	C12,1.117,11.85,0.755,11.547,0.453z"/>
</svg>
