<?xml version="1.0" encoding="utf-8"?>
<!-- Generator: Adobe Illustrator 16.0.4, SVG Export Plug-In . SVG Version: 6.00 Build 0)  -->
<!DOCTYPE svg PUBLIC "-//W3C//DTD SVG 1.0//EN" "http://www.w3.org/TR/2001/REC-SVG-20010904/DTD/svg10.dtd">
<svg version="1.0" id="Слой_1" xmlns="http://www.w3.org/2000/svg" xmlns:xlink="http://www.w3.org/1999/xlink" x="0px" y="0px"
	 width="17.505px" height="19px" viewBox="0 0 17.505 19" enable-background="new 0 0 17.505 19" xml:space="preserve">
<g>
	<g>
		<path fill="#D1F1FF" d="M8.778,18.5c-0.591,0-1.081-0.2-1.498-0.61l-0.177-0.171c-0.324-0.31-0.324-0.31-0.324-0.719v-0.5H0.763
			c-0.011-0.281-0.035-0.851-0.021-1.17c2.332-1.27,2.9-5.007,3.014-6.054h0.024V7c0-2.586,1.495-4.06,4.571-4.505l0.429-0.062V0.5
			v1.933l0.429,0.062C12.241,2.935,13.779,4.45,13.779,7v2h1l-0.498,0.474l-0.486-0.391c0.453,3.045,1.512,5.205,3.008,6.208
			c0.006,0.215-0.002,0.523-0.009,0.823c-0.003,0.125-0.007,0.253-0.009,0.385h-6.006V17c0,0.408,0,0.408-0.324,0.718l-0.178,0.172
			C9.86,18.3,9.37,18.5,8.778,18.5z"/>
	</g>
	<g>
		<path fill="#6ECBED" d="M8.779,2.938L9.136,2.99C12.85,3.528,13.279,5.536,13.279,7v2h1.002v0.003l-0.979,0.167l0.013,0.083
			c0.439,2.952,1.492,5.158,2.99,6.296c-0.001,0.143-0.005,0.303-0.008,0.45h-5.018h-1v1c0,0.101-0.004,0.163-0.007,0.198
			c-0.04,0.042-0.106,0.105-0.162,0.158l-0.185,0.178C9.604,17.852,9.238,18,8.778,18c-0.459,0-0.824-0.148-1.147-0.467
			l-0.182-0.175c-0.057-0.054-0.123-0.117-0.163-0.159C7.283,17.163,7.279,17.102,7.279,17v-1h-1H1.244
			c-0.004-0.13-0.008-0.264-0.01-0.382c2.374-1.523,2.917-5.292,3.022-6.343h0.022V9V7c0-1.464,0.43-3.472,4.144-4.01L8.779,2.938
			 M9.163,0C8.97,0,8.585,0,8.393,0C8.323,0,8.279,0,8.279,0v2c-3.121,0.452-5,2.028-5,5c0,0.756,0,2.275,0,2.275s0-0.083,0-0.275
			c0,0.123-0.402,4.855-3,6c-0.095,0.335,0,1.629,0,2C0.086,17,0,17,0,17h6.279c0,0.71,0.14,0.744,0.65,1.246
			C7.44,18.749,8.057,19,8.778,19s1.339-0.251,1.85-0.754c0.511-0.502,0.651-0.536,0.651-1.246c0,0,4.884,0,6,0
			c0-0.834,0.058-1.656,0-2c-2.555-1.473-2.969-6.026-2.998-6.026c-0.001,0-0.002,0.009-0.002,0.026c0-1.491,0-1.068,0-2
			c0-2.972-1.881-4.548-5-5V0C9.279,0,9.234,0,9.163,0L9.163,0z M8.279,0L8.279,0L8.279,0L8.279,0z M17.505,17c0,0-0.081,0-0.226,0
			C17.435,17,17.505,17,17.505,17L17.505,17z"/>
	</g>
</g>
</svg>
