<?xml version="1.0" encoding="UTF-8" standalone="no"?>
<!-- Generator: Adobe Illustrator 16.0.4, SVG Export Plug-In . SVG Version: 6.00 Build 0)  -->

<svg
   xmlns:dc="http://purl.org/dc/elements/1.1/"
   xmlns:cc="http://creativecommons.org/ns#"
   xmlns:rdf="http://www.w3.org/1999/02/22-rdf-syntax-ns#"
   xmlns:svg="http://www.w3.org/2000/svg"
   xmlns="http://www.w3.org/2000/svg"
   xmlns:sodipodi="http://sodipodi.sourceforge.net/DTD/sodipodi-0.dtd"
   xmlns:inkscape="http://www.inkscape.org/namespaces/inkscape"
   version="1.0"
   id="Слой_1"
   x="0px"
   y="0px"
   width="22px"
   height="21.999px"
   viewBox="0 0 22 21.999"
   enable-background="new 0 0 22 21.999"
   xml:space="preserve"
   inkscape:version="0.91 r13725"
   sodipodi:docname="ico-31-white.svg"><metadata
     id="metadata11"><rdf:RDF><cc:Work
         rdf:about=""><dc:format>image/svg+xml</dc:format><dc:type
           rdf:resource="http://purl.org/dc/dcmitype/StillImage" /><dc:title></dc:title></cc:Work></rdf:RDF></metadata><defs
     id="defs9" /><sodipodi:namedview
     pagecolor="#ffffff"
     bordercolor="#666666"
     borderopacity="1"
     objecttolerance="10"
     gridtolerance="10"
     guidetolerance="10"
     inkscape:pageopacity="0"
     inkscape:pageshadow="2"
     inkscape:window-width="1290"
     inkscape:window-height="647"
     id="namedview7"
     showgrid="false"
     inkscape:zoom="10.72776"
     inkscape:cx="11"
     inkscape:cy="10.9995"
     inkscape:window-x="0"
     inkscape:window-y="0"
     inkscape:window-maximized="0"
     inkscape:current-layer="Слой_1" /><g
     id="g3"><path
       d="M 20.625,11 1.375,11 C 0.988,11 0.662,10.868 0.397,10.603 0.132,10.338 0,10.016 0,9.637 0,9.258 0.132,8.931 0.397,8.66 0.662,8.388 0.988,8.252 1.375,8.252 l 1.203,0 c 0.286,0.429 0.655,0.766 1.106,1.01 0.451,0.243 0.941,0.365 1.472,0.365 0.529,0 1.021,-0.122 1.472,-0.365 0.451,-0.244 0.819,-0.581 1.106,-1.01 l 6.531,0 c 0.286,0.429 0.655,0.766 1.106,1.01 0.451,0.243 0.941,0.365 1.472,0.365 0.529,0 1.021,-0.122 1.472,-0.365 0.451,-0.244 0.819,-0.581 1.106,-1.01 l 1.203,0 c 0.387,0 0.712,0.136 0.978,0.408 C 21.867,8.931 22,9.257 22,9.637 c 0,0.38 -0.133,0.702 -0.397,0.967 C 21.337,10.868 21.012,11 20.625,11 Z m -1.375,9.624 c -0.115,0.573 -0.326,0.945 -0.634,1.117 -0.309,0.171 -0.777,0.258 -1.407,0.258 l -12.332,0 C 4.232,21.999 3.745,21.913 3.416,21.741 3.086,21.569 2.864,21.197 2.75,20.624 l -1.375,-8.248 19.25,0 -1.375,8.248 z M 6.23,7.693 C 6.072,7.965 5.844,8.144 5.543,8.23 5.242,8.316 4.955,8.28 4.684,8.123 4.411,7.965 4.235,7.732 4.157,7.424 4.078,7.116 4.117,6.826 4.275,6.554 L 7.52,0.583 C 7.677,0.311 7.907,0.132 8.208,0.046 8.509,-0.04 8.795,-0.004 9.067,0.153 9.338,0.311 9.514,0.544 9.593,0.851 9.671,1.16 9.632,1.45 9.475,1.721 L 6.23,7.693 Z M 17.843,7.424 C 17.764,7.732 17.588,7.965 17.317,8.122 17.045,8.28 16.758,8.315 16.458,8.229 16.158,8.143 15.928,7.964 15.77,7.692 L 12.526,1.72 C 12.368,1.449 12.329,1.158 12.408,0.85 c 0.078,-0.308 0.254,-0.541 0.526,-0.698 0.271,-0.157 0.559,-0.193 0.859,-0.107 0.301,0.086 0.529,0.265 0.688,0.537 l 3.244,5.972 c 0.157,0.273 0.196,0.563 0.118,0.87 z"
       id="path5"
       inkscape:connector-curvature="0"
       style="fill:#ffffff" /></g></svg>